<svg width="150" height="150" viewBox="0 0 150 150" fill="none" xmlns="http://www.w3.org/2000/svg">
<path d="M143.32 84.3457H135.293C134.531 84.3457 133.945 84.9316 133.945 85.6934V95.0684H123.223V42.832C123.223 42.0703 122.637 41.4844 121.875 41.4844H113.848C113.086 41.4844 112.5 42.0703 112.5 42.832V52.207H101.777V42.832C101.777 42.0703 101.191 41.4844 100.43 41.4844H92.4023C91.6406 41.4844 91.0547 42.0703 91.0547 42.832V52.207H80.332V42.832C80.332 41.0742 77.9883 41.4844 76.9043 41.4844V30.3516C79.3359 29.7656 81.9141 29.3555 84.4336 29.3555C87.627 29.3555 90.5566 30.6152 93.6328 30.6152C94.9805 30.6152 101.748 30.293 101.748 28.2715V10.6934C101.748 9.93165 101.162 9.34571 100.4 9.34571C98.9062 9.34571 95.9766 10.6055 93.3691 10.6055C90.5273 10.6055 87.2461 9.34571 83.8184 9.34571C81.4746 9.34571 79.1309 9.66797 76.875 10.1953V8.75977C78.457 7.99805 79.541 6.32813 79.541 4.57032C79.541 -1.49413 70.3418 -1.52343 70.3418 4.57032C70.3418 6.32813 71.4258 7.99805 73.0078 8.75977V41.4844C71.9238 41.4844 69.5801 41.0742 69.5801 42.832V52.207H58.8574V42.832C58.8574 42.0703 58.2715 41.4844 57.5098 41.4844H49.4824C48.7207 41.4844 48.1348 42.0703 48.1348 42.832V52.207H37.5V42.832C37.5 42.0703 36.9141 41.4844 36.1523 41.4844H28.125C27.3633 41.4844 26.7773 42.0703 26.7773 42.832V95.0684H16.0547V85.6934C16.0547 84.9316 15.4688 84.3457 14.707 84.3457H6.67969C5.91797 84.3457 5.33203 84.9316 5.33203 85.6934V150H58.916V121.875C58.916 100.605 91.0547 100.605 91.0547 121.875V150H144.639V85.6934C144.668 84.9316 144.082 84.3457 143.32 84.3457ZM58.916 83.0274C58.916 83.7891 58.3301 84.375 57.5684 84.375H49.541C48.7793 84.375 48.1934 83.7891 48.1934 83.0274V64.2774C48.1934 63.5156 48.7793 62.9297 49.541 62.9297H57.5684C58.3301 62.9297 58.916 63.5156 58.916 64.2774V83.0274ZM101.807 83.0274C101.807 83.7891 101.221 84.375 100.459 84.375H92.4316C91.6699 84.375 91.084 83.7891 91.084 83.0274V64.2774C91.084 63.5156 91.6699 62.9297 92.4316 62.9297H100.459C101.221 62.9297 101.807 63.5156 101.807 64.2774V83.0274Z" fill="#2E2E2E"/>
</svg>
