<svg width="29" height="29" viewBox="0 0 29 29" fill="none" xmlns="http://www.w3.org/2000/svg">
<path d="M9.62752 7.48579C10.1407 7.21058 10.6929 7.12205 11.2305 7.12202C11.8529 7.12198 12.5758 7.32723 13.1596 7.80751C13.7708 8.3103 14.1863 9.08169 14.1863 10.0883C14.1863 11.245 13.372 11.873 12.913 12.2271C12.8774 12.2546 12.8438 12.2805 12.8129 12.3048C12.3109 12.7009 12.1173 12.9125 12.1173 13.3522C12.1173 13.8438 11.7203 14.2424 11.2306 14.2424C10.7409 14.2424 10.3439 13.8438 10.3439 13.3522C10.3439 12.0063 11.1848 11.325 11.7172 10.905C12.3241 10.4262 12.4128 10.3196 12.4128 10.0883C12.4128 9.61709 12.2372 9.35039 12.0356 9.18456C11.8066 8.99623 11.495 8.90231 11.2306 8.90232C10.8815 8.90235 10.6416 8.96035 10.4631 9.05607C10.2935 9.14702 10.1141 9.30672 9.9411 9.62707C9.70768 10.0593 9.16946 10.2197 8.73894 9.98535C8.30842 9.75104 8.14864 9.21073 8.38204 8.77854C8.69378 8.20135 9.10546 7.76575 9.62752 7.48579ZM11.2308 17.8031C11.8838 17.8031 12.4132 17.2717 12.4132 16.6162C12.4132 15.9606 11.8838 15.4292 11.2308 15.4292C10.5778 15.4292 10.0484 15.9606 10.0484 16.6162C10.0484 17.2717 10.5778 17.8031 11.2308 17.8031ZM11.2308 3.56055C6.33355 3.56055 2.36358 7.54589 2.36358 12.4621C2.36358 13.8067 2.66112 15.0836 3.19431 16.2285C2.89398 17.413 2.55842 18.7337 2.33805 19.6007C2.06255 20.6847 3.03491 21.6707 4.11592 21.4099C5.0029 21.1959 6.36612 20.8673 7.5809 20.5767C8.69498 21.0824 9.93122 21.3636 11.2308 21.3636C16.128 21.3636 20.098 17.3782 20.098 12.4621C20.098 7.54589 16.128 3.56055 11.2308 3.56055ZM4.13701 12.4621C4.13701 8.52912 7.31299 5.34085 11.2308 5.34085C15.1485 5.34085 18.3245 8.52912 18.3245 12.4621C18.3245 16.395 15.1485 19.5833 11.2308 19.5833C10.0949 19.5833 9.02377 19.316 8.07408 18.8414L7.7863 18.6975L7.47356 18.7723C6.38262 19.0329 5.12223 19.3363 4.17761 19.564C4.41259 18.6394 4.72374 17.4142 4.9935 16.3499L5.07647 16.0224L4.92217 15.7222C4.42061 14.7463 4.13701 13.6387 4.13701 12.4621ZM17.1422 24.9243C14.8138 24.9243 12.6951 24.0233 11.1129 22.5499C11.1522 22.5503 11.1915 22.5506 11.2308 22.5506C12.0797 22.5506 12.904 22.4448 13.6913 22.2459C14.7128 22.818 15.8896 23.144 17.1422 23.144C18.2781 23.144 19.3492 22.8766 20.299 22.402L20.5867 22.2581L20.8995 22.3329C21.9891 22.5933 23.2228 22.862 24.138 23.0563C23.9311 22.1655 23.6489 20.9732 23.3795 19.9105L23.2965 19.5832L23.4508 19.2829C23.9524 18.307 24.236 17.1994 24.236 16.0228C24.236 13.5128 22.9426 11.3063 20.9882 10.038C20.7774 9.1796 20.457 8.36447 20.0429 7.60839C23.5156 8.81462 26.0094 12.1263 26.0094 16.0228C26.0094 17.3676 25.7117 18.6449 25.1783 19.7899C25.4775 20.9863 25.7804 22.2822 25.9725 23.1169C26.2142 24.1673 25.2927 25.118 24.2377 24.8966C23.3779 24.7162 22.0271 24.4269 20.793 24.1369C19.6787 24.6429 18.4422 24.9243 17.1422 24.9243Z" fill="#003191"/>
</svg>
