<svg width="25" height="24" viewBox="0 0 25 24" fill="none" xmlns="http://www.w3.org/2000/svg">
<path d="M22.2365 12V19C22.2365 20.5977 20.9742 21.9037 19.3825 21.9949L19.2043 22H16.172C15.6537 22 15.2265 21.614 15.168 21.1166L15.1613 21V15C15.1613 14.4872 15.5514 14.0645 16.0542 14.0067L16.172 14H20.7204V12C20.7204 7.30558 16.8739 3.5 12.129 3.5C7.38411 3.5 3.53761 7.30558 3.53761 12V14H8.086C8.64422 14 9.09675 14.4477 9.09675 15V21C9.09675 21.5523 8.64422 22 8.086 22H5.05374C3.37908 22 2.02148 20.6569 2.02148 19V12C2.02148 6.47715 6.54678 2 12.129 2C17.7112 2 22.2365 6.47715 22.2365 12ZM7.58062 15.5H3.53761V19C3.53761 19.8284 4.2164 20.5 5.05374 20.5H7.58062V15.5ZM20.7204 15.5H16.6774V20.5H19.2043C19.9924 20.5 20.64 19.9051 20.7134 19.1445L20.7204 19V15.5Z" fill="#AFAFAF"/>
</svg>
