<svg width="37" height="37" viewBox="0 0 37 37" fill="none" xmlns="http://www.w3.org/2000/svg">
<path d="M12.5538 9.72365C13.2229 9.36616 13.943 9.25117 14.6441 9.25113C15.4556 9.25108 16.3982 9.51768 17.1595 10.1415C17.9565 10.7946 18.4983 11.7966 18.4983 13.1042C18.4983 14.6067 17.4365 15.4224 16.8379 15.8822C16.7915 15.918 16.7477 15.9516 16.7075 15.9832C16.0529 16.4977 15.8003 16.7726 15.8003 17.3437C15.8003 17.9823 15.2827 18.5 14.6441 18.5C14.0056 18.5 13.4879 17.9823 13.4879 17.3437C13.4879 15.5955 14.5844 14.7105 15.2787 14.1649C16.07 13.5431 16.1858 13.4045 16.1858 13.1042C16.1858 12.4921 15.9567 12.1456 15.6938 11.9302C15.3953 11.6856 14.9889 11.5636 14.6442 11.5636C14.189 11.5637 13.8762 11.639 13.6434 11.7633C13.4223 11.8815 13.1883 12.0889 12.9627 12.505C12.6583 13.0664 11.9565 13.2748 11.3951 12.9704C10.8337 12.6661 10.6254 11.9642 10.9297 11.4028C11.3362 10.6531 11.8731 10.0873 12.5538 9.72365ZM14.6444 23.1252C15.4959 23.1252 16.1862 22.4349 16.1862 21.5835C16.1862 20.7319 15.4959 20.0417 14.6444 20.0417C13.7929 20.0417 13.1026 20.7319 13.1026 21.5835C13.1026 22.4349 13.7929 23.1252 14.6444 23.1252ZM14.6444 4.625C8.25857 4.625 3.08187 9.8017 3.08187 16.1875C3.08187 17.9341 3.46986 19.5927 4.16513 21.0798C3.7735 22.6184 3.33594 24.334 3.04859 25.4602C2.68935 26.8682 3.95726 28.149 5.36687 27.8101C6.52346 27.5322 8.30105 27.1054 9.88508 26.7279C11.3378 27.3848 12.9498 27.75 14.6444 27.75C21.0301 27.75 26.2069 22.5732 26.2069 16.1875C26.2069 9.8017 21.0301 4.625 14.6444 4.625ZM5.39437 16.1875C5.39437 11.0789 9.53574 6.9375 14.6444 6.9375C19.753 6.9375 23.8944 11.0789 23.8944 16.1875C23.8944 21.2961 19.753 25.4375 14.6444 25.4375C13.1632 25.4375 11.7665 25.0903 10.5282 24.4738L10.1529 24.287L9.74511 24.3841C8.32257 24.7226 6.67906 25.1167 5.44731 25.4125C5.75372 24.2114 6.15944 22.6199 6.5112 21.2375L6.6194 20.8122L6.41819 20.4222C5.76417 19.1546 5.39437 17.7159 5.39437 16.1875ZM22.3527 32.3752C19.3166 32.3752 16.5538 31.2049 14.4907 29.2909C14.5419 29.2915 14.5931 29.2918 14.6445 29.2918C15.7513 29.2918 16.8262 29.1545 17.8528 28.8961C19.1848 29.6392 20.7193 30.0627 22.3527 30.0627C23.8338 30.0627 25.2306 29.7153 26.469 29.0988L26.8442 28.912L27.252 29.0091C28.6728 29.3473 30.2815 29.6964 31.4749 29.9487C31.2051 28.7917 30.8371 27.2429 30.486 25.8625L30.3777 25.4373L30.5789 25.0473C31.2329 23.7797 31.6027 22.3411 31.6027 20.8127C31.6027 17.5523 29.9162 14.6862 27.3678 13.0388C27.0929 11.9238 26.6751 10.865 26.1351 9.88289C30.6634 11.4497 33.9152 15.7514 33.9152 20.8127C33.9152 22.5595 33.527 24.2187 32.8314 25.7059C33.2216 27.2599 33.6166 28.9433 33.8671 30.0275C34.1823 31.3919 32.9807 32.6268 31.6049 32.3392C30.4838 32.1049 28.7224 31.729 27.1132 31.3524C25.6602 32.0096 24.0478 32.3752 22.3527 32.3752Z" fill="#6B6B6B"/>
</svg>
