<svg width="37" height="37" viewBox="0 0 37 37" fill="none" xmlns="http://www.w3.org/2000/svg">
<path fill-rule="evenodd" clip-rule="evenodd" d="M16.1862 21.5835C16.1862 22.4349 15.4959 23.1252 14.6444 23.1252C13.7929 23.1252 13.1026 22.4349 13.1026 21.5835C13.1026 20.7319 13.7929 20.0417 14.6444 20.0417C15.4959 20.0417 16.1862 20.7319 16.1862 21.5835ZM3.08187 16.1875C3.08187 9.8017 8.25857 4.625 14.6444 4.625C21.0301 4.625 26.2069 9.8017 26.2069 16.1875C26.2069 22.5732 21.0301 27.75 14.6444 27.75C12.9498 27.75 11.3378 27.3848 9.88508 26.7279C8.30105 27.1054 6.52346 27.5322 5.36687 27.8101C3.95726 28.149 2.68935 26.8682 3.04859 25.4602C3.33594 24.334 3.7735 22.6184 4.16513 21.0798C3.46986 19.5927 3.08187 17.9341 3.08187 16.1875ZM14.6444 6.9375C9.53574 6.9375 5.39437 11.0789 5.39437 16.1875C5.39437 17.7159 5.76417 19.1546 6.41819 20.4222L6.6194 20.8122L6.5112 21.2375C6.15944 22.6199 5.75372 24.2114 5.44731 25.4125C6.67906 25.1167 8.32257 24.7226 9.74511 24.3841L10.1529 24.287L10.5282 24.4738C11.7665 25.0903 13.1632 25.4375 14.6444 25.4375C19.753 25.4375 23.8944 21.2961 23.8944 16.1875C23.8944 11.0789 19.753 6.9375 14.6444 6.9375ZM14.4907 29.2909C16.5538 31.2049 19.3166 32.3752 22.3527 32.3752C24.0478 32.3752 25.6602 32.0096 27.1132 31.3524C28.7224 31.729 30.4838 32.1049 31.6049 32.3392C32.9807 32.6268 34.1823 31.3919 33.8671 30.0275C33.6166 28.9433 33.2216 27.2599 32.8314 25.7059C33.527 24.2187 33.9152 22.5595 33.9152 20.8127C33.9152 15.7514 30.6634 11.4497 26.1351 9.88289C26.6751 10.865 27.0929 11.9238 27.3678 13.0388C29.9162 14.6862 31.6027 17.5523 31.6027 20.8127C31.6027 22.3411 31.2329 23.7797 30.5789 25.0473L30.3777 25.4373L30.486 25.8625C30.8371 27.2429 31.2051 28.7917 31.4749 29.9487C30.2815 29.6964 28.6728 29.3473 27.252 29.0091L26.8442 28.912L26.469 29.0988C25.2306 29.7153 23.8338 30.0627 22.3527 30.0627C20.7193 30.0627 19.1848 29.6392 17.8528 28.8961C16.8262 29.1545 15.7513 29.2918 14.6445 29.2918C14.5931 29.2918 14.5419 29.2915 14.4907 29.2909Z" fill="#4865FF"/>
<rect x="13.041" y="9.7049" width="3.03279" height="9.09836" rx="1.51639" fill="#4865FF"/>
</svg>
