<svg width="158" height="29" viewBox="0 0 158 29" fill="none" xmlns="http://www.w3.org/2000/svg">
<path d="M9.62752 7.48579C10.1407 7.21058 10.6929 7.12206 11.2305 7.12202C11.8529 7.12198 12.5758 7.32723 13.1596 7.80751C13.7708 8.3103 14.1863 9.08169 14.1863 10.0883C14.1863 11.245 13.372 11.873 12.913 12.2271C12.8774 12.2546 12.8438 12.2805 12.8129 12.3048C12.3109 12.7009 12.1173 12.9125 12.1173 13.3522C12.1173 13.8438 11.7203 14.2424 11.2306 14.2424C10.7409 14.2424 10.3439 13.8438 10.3439 13.3522C10.3439 12.0063 11.1848 11.325 11.7172 10.905C12.3241 10.4262 12.4128 10.3196 12.4128 10.0883C12.4128 9.61709 12.2372 9.35039 12.0356 9.18456C11.8066 8.99623 11.495 8.90231 11.2306 8.90232C10.8815 8.90235 10.6416 8.96035 10.4631 9.05607C10.2935 9.14702 10.1141 9.30672 9.9411 9.62707C9.70768 10.0593 9.16946 10.2197 8.73894 9.98535C8.30842 9.75104 8.14864 9.21073 8.38204 8.77854C8.69378 8.20135 9.10546 7.76575 9.62752 7.48579ZM11.2308 17.8031C11.8838 17.8031 12.4132 17.2717 12.4132 16.6162C12.4132 15.9606 11.8838 15.4292 11.2308 15.4292C10.5778 15.4292 10.0484 15.9606 10.0484 16.6162C10.0484 17.2717 10.5778 17.8031 11.2308 17.8031ZM11.2308 3.56055C6.33355 3.56055 2.36358 7.54589 2.36358 12.4621C2.36358 13.8067 2.66112 15.0836 3.19431 16.2285C2.89398 17.413 2.55842 18.7337 2.33805 19.6007C2.06255 20.6847 3.03491 21.6707 4.11592 21.4099C5.0029 21.1959 6.36612 20.8673 7.5809 20.5767C8.69498 21.0824 9.93122 21.3636 11.2308 21.3636C16.128 21.3636 20.098 17.3782 20.098 12.4621C20.098 7.54589 16.128 3.56055 11.2308 3.56055ZM4.13701 12.4621C4.13701 8.52912 7.31299 5.34085 11.2308 5.34085C15.1485 5.34085 18.3245 8.52912 18.3245 12.4621C18.3245 16.395 15.1485 19.5833 11.2308 19.5833C10.0949 19.5833 9.02377 19.316 8.07408 18.8414L7.7863 18.6975L7.47356 18.7723C6.38262 19.0329 5.12223 19.3363 4.17761 19.564C4.41259 18.6394 4.72374 17.4142 4.9935 16.3499L5.07647 16.0224L4.92217 15.7222C4.42061 14.7463 4.13701 13.6387 4.13701 12.4621ZM17.1422 24.9243C14.8138 24.9243 12.6951 24.0233 11.1129 22.5499C11.1522 22.5503 11.1915 22.5506 11.2308 22.5506C12.0797 22.5506 12.904 22.4448 13.6913 22.2459C14.7128 22.818 15.8896 23.144 17.1422 23.144C18.2781 23.144 19.3492 22.8766 20.299 22.402L20.5867 22.2581L20.8995 22.3329C21.989 22.5933 23.2228 22.862 24.138 23.0563C23.9311 22.1655 23.6489 20.9732 23.3795 19.9105L23.2965 19.5832L23.4508 19.2829C23.9524 18.307 24.236 17.1994 24.236 16.0228C24.236 13.5128 22.9426 11.3063 20.9882 10.038C20.7774 9.1796 20.457 8.36447 20.0429 7.60839C23.5156 8.81462 26.0094 12.1263 26.0094 16.0228C26.0094 17.3676 25.7117 18.6449 25.1783 19.7899C25.4775 20.9863 25.7804 22.2822 25.9725 23.1169C26.2142 24.1673 25.2927 25.118 24.2376 24.8966C23.3779 24.7162 22.0271 24.4269 20.793 24.1369C19.6787 24.6429 18.4422 24.9243 17.1422 24.9243Z" fill="#003191"/>
<path d="M40.1167 21.88L43.0927 5.392C43.1087 5.328 43.1487 5.296 43.2127 5.296H46.6927C46.7567 5.296 46.7967 5.328 46.8127 5.392L49.6687 21.88C49.6847 21.96 49.6527 22 49.5727 22H46.9087C46.8447 22 46.8047 21.96 46.7887 21.88L46.5247 20.128H43.2607L42.9967 21.88C42.9807 21.96 42.9407 22 42.8767 22H40.2127C40.1487 22 40.1167 21.96 40.1167 21.88ZM43.7407 17.56H46.0447L45.0607 10.816L44.9167 9.928L44.8207 10.816L43.7407 17.56ZM55.0512 22.24C54.1872 22.24 53.4032 22.024 52.6992 21.592C51.9952 21.16 51.4272 20.584 50.9952 19.864C50.5792 19.128 50.3712 18.312 50.3712 17.416V9.808C50.3712 8.944 50.5792 8.152 50.9952 7.432C51.4272 6.696 51.9952 6.112 52.6992 5.68C53.4192 5.248 54.2032 5.032 55.0512 5.032C55.9312 5.032 56.7232 5.248 57.4272 5.68C58.1472 6.096 58.7152 6.664 59.1312 7.384C59.5472 8.104 59.7552 8.912 59.7552 9.808V10.912C59.7552 10.976 59.7152 11.008 59.6352 11.008H56.9472C56.8832 11.008 56.8512 10.976 56.8512 10.912V10C56.8512 9.392 56.6752 8.888 56.3232 8.488C55.9872 8.088 55.5632 7.888 55.0512 7.888C54.5872 7.888 54.1712 8.08 53.8032 8.464C53.4512 8.848 53.2752 9.296 53.2752 9.808V17.416C53.2752 17.944 53.4512 18.4 53.8032 18.784C54.1552 19.152 54.5712 19.336 55.0512 19.336C55.5632 19.336 55.9872 19.152 56.3232 18.784C56.6752 18.416 56.8512 17.96 56.8512 17.416V16.24H55.1712C55.0912 16.24 55.0512 16.2 55.0512 16.12V13.432C55.0512 13.352 55.0912 13.312 55.1712 13.312H59.6592C59.7232 13.312 59.7552 13.352 59.7552 13.432V17.416C59.7552 18.312 59.5392 19.128 59.1072 19.864C58.6912 20.584 58.1312 21.16 57.4272 21.592C56.7232 22.024 55.9312 22.24 55.0512 22.24ZM65.9039 22.24C65.0399 22.24 64.2479 22.024 63.5279 21.592C62.8239 21.144 62.2559 20.56 61.8239 19.84C61.3919 19.104 61.1759 18.296 61.1759 17.416L61.1999 9.808C61.1999 8.928 61.4079 8.128 61.8239 7.408C62.2559 6.688 62.8319 6.112 63.5519 5.68C64.2719 5.248 65.0559 5.032 65.9039 5.032C66.7679 5.032 67.5519 5.248 68.2559 5.68C68.9599 6.112 69.5199 6.688 69.9359 7.408C70.3679 8.128 70.5839 8.928 70.5839 9.808L70.6079 17.416C70.6079 18.296 70.3919 19.104 69.9599 19.84C69.5439 20.56 68.9759 21.144 68.2559 21.592C67.5519 22.024 66.7679 22.24 65.9039 22.24ZM65.9039 19.336C66.3839 19.336 66.7999 19.144 67.1519 18.76C67.5199 18.36 67.7039 17.912 67.7039 17.416L67.6799 9.808C67.6799 9.28 67.5119 8.832 67.1759 8.464C66.8399 8.096 66.4159 7.912 65.9039 7.912C65.4079 7.912 64.9839 8.096 64.6319 8.464C64.2799 8.816 64.1039 9.264 64.1039 9.808V17.416C64.1039 17.944 64.2799 18.4 64.6319 18.784C64.9839 19.152 65.4079 19.336 65.9039 19.336ZM72.5287 22C72.4647 22 72.4327 21.96 72.4327 21.88L72.4807 5.392C72.4807 5.328 72.5127 5.296 72.5767 5.296H77.4247C78.2887 5.296 79.0807 5.512 79.8007 5.944C80.5367 6.36 81.1207 6.928 81.5527 7.648C81.9847 8.352 82.2007 9.152 82.2007 10.048C82.2007 10.64 82.1127 11.176 81.9367 11.656C81.7607 12.12 81.5527 12.52 81.3127 12.856C81.0727 13.176 80.8567 13.416 80.6647 13.576C81.5287 14.536 81.9607 15.664 81.9607 16.96L81.9847 21.88C81.9847 21.96 81.9447 22 81.8647 22H79.1527C79.0887 22 79.0567 21.976 79.0567 21.928V16.96C79.0567 16.384 78.8487 15.888 78.4327 15.472C78.0327 15.04 77.5367 14.824 76.9447 14.824H75.3607L75.3367 21.88C75.3367 21.96 75.3047 22 75.2407 22H72.5287ZM75.3607 11.944H77.4247C77.9207 11.944 78.3607 11.76 78.7447 11.392C79.1287 11.024 79.3207 10.576 79.3207 10.048C79.3207 9.536 79.1287 9.096 78.7447 8.728C78.3767 8.36 77.9367 8.176 77.4247 8.176H75.3607V11.944ZM83.1948 21.88L86.1708 5.392C86.1868 5.328 86.2268 5.296 86.2908 5.296H89.7708C89.8348 5.296 89.8748 5.328 89.8908 5.392L92.7468 21.88C92.7628 21.96 92.7308 22 92.6508 22H89.9868C89.9228 22 89.8828 21.96 89.8668 21.88L89.6028 20.128H86.3388L86.0748 21.88C86.0588 21.96 86.0188 22 85.9548 22H83.2908C83.2268 22 83.1948 21.96 83.1948 21.88ZM86.8188 17.56H89.1228L88.1388 10.816L87.9948 9.928L87.8988 10.816L86.8188 17.56ZM102.13 22.24C101.266 22.24 100.474 22.024 99.7538 21.592C99.0498 21.144 98.4818 20.56 98.0498 19.84C97.6338 19.104 97.4258 18.296 97.4258 17.416V16.312C97.4258 16.232 97.4658 16.192 97.5458 16.192H100.234C100.298 16.192 100.33 16.232 100.33 16.312V17.416C100.33 17.944 100.506 18.4 100.858 18.784C101.21 19.152 101.634 19.336 102.13 19.336C102.626 19.336 103.05 19.144 103.402 18.76C103.754 18.376 103.93 17.928 103.93 17.416C103.93 16.824 103.546 16.312 102.778 15.88C102.522 15.736 102.122 15.512 101.578 15.208C101.034 14.904 100.522 14.616 100.042 14.344C99.1618 13.832 98.5058 13.192 98.0738 12.424C97.6578 11.64 97.4498 10.76 97.4498 9.784C97.4498 8.888 97.6658 8.088 98.0978 7.384C98.5298 6.664 99.0978 6.096 99.8018 5.68C100.522 5.264 101.298 5.056 102.13 5.056C102.978 5.056 103.754 5.272 104.458 5.704C105.178 6.12 105.746 6.688 106.162 7.408C106.594 8.112 106.81 8.904 106.81 9.784V11.752C106.81 11.816 106.778 11.848 106.714 11.848H104.026C103.962 11.848 103.93 11.816 103.93 11.752L103.906 9.784C103.906 9.224 103.73 8.768 103.378 8.416C103.026 8.064 102.61 7.888 102.13 7.888C101.634 7.888 101.21 8.08 100.858 8.464C100.506 8.832 100.33 9.272 100.33 9.784C100.33 10.312 100.442 10.752 100.666 11.104C100.89 11.456 101.298 11.792 101.89 12.112C101.97 12.16 102.122 12.248 102.346 12.376C102.586 12.488 102.842 12.624 103.114 12.784C103.386 12.928 103.626 13.056 103.834 13.168C104.058 13.28 104.194 13.352 104.242 13.384C105.042 13.832 105.674 14.384 106.138 15.04C106.602 15.68 106.834 16.472 106.834 17.416C106.834 18.328 106.618 19.152 106.186 19.888C105.77 20.608 105.202 21.184 104.482 21.616C103.778 22.032 102.994 22.24 102.13 22.24ZM110.786 22C110.722 22 110.69 21.96 110.69 21.88V8.2H107.57C107.49 8.2 107.45 8.16 107.45 8.08L107.474 5.392C107.474 5.328 107.506 5.296 107.57 5.296H116.69C116.77 5.296 116.81 5.328 116.81 5.392V8.08C116.81 8.16 116.778 8.2 116.714 8.2H113.57L113.594 21.88C113.594 21.96 113.562 22 113.498 22H110.786ZM116.078 21.88L119.054 5.392C119.07 5.328 119.11 5.296 119.174 5.296H122.654C122.718 5.296 122.758 5.328 122.774 5.392L125.63 21.88C125.646 21.96 125.614 22 125.534 22H122.87C122.806 22 122.766 21.96 122.75 21.88L122.486 20.128H119.222L118.958 21.88C118.942 21.96 118.902 22 118.838 22H116.174C116.11 22 116.078 21.96 116.078 21.88ZM119.702 17.56H122.006L121.022 10.816L120.878 9.928L120.782 10.816L119.702 17.56ZM128.387 22C128.323 22 128.291 21.96 128.291 21.88V8.2H125.171C125.091 8.2 125.051 8.16 125.051 8.08L125.075 5.392C125.075 5.328 125.107 5.296 125.171 5.296H134.291C134.371 5.296 134.411 5.328 134.411 5.392V8.08C134.411 8.16 134.379 8.2 134.315 8.2H131.171L131.195 21.88C131.195 21.96 131.163 22 131.099 22H128.387ZM135.693 22C135.629 22 135.597 21.96 135.597 21.88L135.621 5.392C135.621 5.328 135.653 5.296 135.717 5.296H143.421C143.485 5.296 143.517 5.336 143.517 5.416V8.104C143.517 8.168 143.485 8.2 143.421 8.2H138.501V11.944H143.421C143.485 11.944 143.517 11.976 143.517 12.04L143.541 14.752C143.541 14.816 143.509 14.848 143.445 14.848H138.501V19.048H143.445C143.509 19.048 143.541 19.088 143.541 19.168V21.904C143.541 21.968 143.509 22 143.445 22H135.693ZM149.614 22.24C148.75 22.24 147.958 22.024 147.238 21.592C146.534 21.144 145.966 20.56 145.534 19.84C145.118 19.104 144.91 18.296 144.91 17.416V16.312C144.91 16.232 144.95 16.192 145.03 16.192H147.718C147.782 16.192 147.814 16.232 147.814 16.312V17.416C147.814 17.944 147.99 18.4 148.342 18.784C148.694 19.152 149.118 19.336 149.614 19.336C150.11 19.336 150.534 19.144 150.886 18.76C151.238 18.376 151.414 17.928 151.414 17.416C151.414 16.824 151.03 16.312 150.262 15.88C150.006 15.736 149.606 15.512 149.062 15.208C148.518 14.904 148.006 14.616 147.526 14.344C146.646 13.832 145.99 13.192 145.558 12.424C145.142 11.64 144.934 10.76 144.934 9.784C144.934 8.888 145.15 8.088 145.582 7.384C146.014 6.664 146.582 6.096 147.286 5.68C148.006 5.264 148.782 5.056 149.614 5.056C150.462 5.056 151.238 5.272 151.942 5.704C152.662 6.12 153.23 6.688 153.646 7.408C154.078 8.112 154.294 8.904 154.294 9.784V11.752C154.294 11.816 154.262 11.848 154.198 11.848H151.51C151.446 11.848 151.414 11.816 151.414 11.752L151.39 9.784C151.39 9.224 151.214 8.768 150.862 8.416C150.51 8.064 150.094 7.888 149.614 7.888C149.118 7.888 148.694 8.08 148.342 8.464C147.99 8.832 147.814 9.272 147.814 9.784C147.814 10.312 147.926 10.752 148.15 11.104C148.374 11.456 148.782 11.792 149.374 12.112C149.454 12.16 149.606 12.248 149.83 12.376C150.07 12.488 150.326 12.624 150.598 12.784C150.87 12.928 151.11 13.056 151.318 13.168C151.542 13.28 151.678 13.352 151.726 13.384C152.526 13.832 153.158 14.384 153.622 15.04C154.086 15.68 154.318 16.472 154.318 17.416C154.318 18.328 154.102 19.152 153.67 19.888C153.254 20.608 152.686 21.184 151.966 21.616C151.262 22.032 150.478 22.24 149.614 22.24Z" fill="#002875"/>
</svg>
