<svg width="324" height="59" viewBox="0 0 324 59" fill="none" xmlns="http://www.w3.org/2000/svg">
<path d="M20.0184 15.5053C21.0855 14.9352 22.2337 14.7519 23.3516 14.7518C24.6457 14.7517 26.1487 15.1768 27.3626 16.1716C28.6336 17.2131 29.4975 18.8108 29.4975 20.8958C29.4975 23.2917 27.8044 24.5924 26.8498 25.3257C26.7758 25.3828 26.706 25.4364 26.6419 25.4868C25.5981 26.3071 25.1954 26.7454 25.1954 27.6562C25.1954 28.6745 24.37 29.5 23.3517 29.5C22.3334 29.5 21.5079 28.6745 21.5079 27.6562C21.5079 24.8685 23.2564 23.4573 24.3635 22.5873C25.6253 21.5957 25.81 21.3748 25.81 20.8958C25.81 19.9198 25.4446 19.3674 25.0255 19.0239C24.5495 18.6338 23.9014 18.4393 23.3518 18.4393C22.6259 18.4393 22.1271 18.5595 21.756 18.7577C21.4033 18.9461 21.0302 19.2769 20.6705 19.9405C20.1851 20.8356 19.066 21.1679 18.1708 20.6825C17.2757 20.1972 16.9434 19.0781 17.4287 18.1829C18.0769 16.9874 18.9329 16.0851 20.0184 15.5053ZM23.3521 36.8752C24.7099 36.8752 25.8107 35.7746 25.8107 34.4169C25.8107 33.0589 24.7099 31.9583 23.3521 31.9583C21.9943 31.9583 20.8936 33.0589 20.8936 34.4169C20.8936 35.7746 21.9943 36.8752 23.3521 36.8752ZM23.3521 7.375C13.1693 7.375 4.91457 15.6297 4.91457 25.8125C4.91457 28.5975 5.53326 31.2425 6.64191 33.6138C6.01742 36.0672 5.3197 38.8028 4.86149 40.5986C4.28865 42.8438 6.31046 44.8862 8.55821 44.3459C10.4025 43.9026 13.237 43.2222 15.7629 42.6201C18.0794 43.6676 20.6499 44.25 23.3521 44.25C33.5348 44.25 41.7896 35.9952 41.7896 25.8125C41.7896 15.6297 33.5348 7.375 23.3521 7.375ZM8.60207 25.8125C8.60207 17.6663 15.2059 11.0625 23.3521 11.0625C31.4983 11.0625 38.1021 17.6663 38.1021 25.8125C38.1021 33.9587 31.4983 40.5625 23.3521 40.5625C20.9902 40.5625 18.7631 40.0089 16.7884 39.0258L16.19 38.7278L15.5397 38.8827C13.2714 39.4226 10.6506 40.0509 8.68649 40.5227C9.17508 38.6074 9.82204 36.0696 10.383 33.8653L10.5555 33.187L10.2346 32.5651C9.19175 30.5438 8.60207 28.2497 8.60207 25.8125ZM35.6438 51.6252C30.8023 51.6252 26.3968 49.7591 23.107 46.7071C23.1887 46.7081 23.2704 46.7086 23.3522 46.7086C25.1172 46.7086 26.8312 46.4895 28.4682 46.0775C30.5922 47.2624 33.0392 47.9377 35.6438 47.9377C38.0055 47.9377 40.2328 47.3839 42.2075 46.4008L42.8059 46.1028L43.4561 46.2577C45.7217 46.7971 48.287 47.3536 50.19 47.7561C49.7598 45.9111 49.173 43.4415 48.613 41.2403L48.4404 40.5623L48.7612 39.9403C49.804 37.9191 50.3938 35.6249 50.3938 33.1877C50.3938 27.9889 47.7044 23.4185 43.6407 20.7916C43.2024 19.0136 42.5362 17.3253 41.6751 15.7592C48.8959 18.2576 54.0813 25.117 54.0813 33.1877C54.0813 35.9733 53.4623 38.6189 52.3531 40.9905C52.9753 43.4685 53.6051 46.1528 54.0046 47.8817C54.5071 50.0573 52.591 52.0264 50.3972 51.568C48.6095 51.1943 45.8009 50.595 43.2349 49.9944C40.9179 51.0424 38.3467 51.6252 35.6438 51.6252Z" fill="white"/>
<path d="M82.3611 47.3L87.3211 19.82C87.3478 19.7133 87.4144 19.66 87.5211 19.66H93.3211C93.4278 19.66 93.4944 19.7133 93.5211 19.82L98.2811 47.3C98.3078 47.4333 98.2544 47.5 98.1211 47.5H93.6811C93.5744 47.5 93.5078 47.4333 93.4811 47.3L93.0411 44.38H87.6011L87.1611 47.3C87.1344 47.4333 87.0678 47.5 86.9611 47.5H82.5211C82.4144 47.5 82.3611 47.4333 82.3611 47.3ZM88.4011 40.1H92.2411L90.6011 28.86L90.3611 27.38L90.2011 28.86L88.4011 40.1ZM107.252 47.9C105.812 47.9 104.505 47.54 103.332 46.82C102.159 46.1 101.212 45.14 100.492 43.94C99.7987 42.7133 99.452 41.3533 99.452 39.86V27.18C99.452 25.74 99.7987 24.42 100.492 23.22C101.212 21.9933 102.159 21.02 103.332 20.3C104.532 19.58 105.839 19.22 107.252 19.22C108.719 19.22 110.039 19.58 111.212 20.3C112.412 20.9933 113.359 21.94 114.052 23.14C114.745 24.34 115.092 25.6867 115.092 27.18V29.02C115.092 29.1267 115.025 29.18 114.892 29.18H110.412C110.305 29.18 110.252 29.1267 110.252 29.02V27.5C110.252 26.4867 109.959 25.6467 109.372 24.98C108.812 24.3133 108.105 23.98 107.252 23.98C106.479 23.98 105.785 24.3 105.172 24.94C104.585 25.58 104.292 26.3267 104.292 27.18V39.86C104.292 40.74 104.585 41.5 105.172 42.14C105.759 42.7533 106.452 43.06 107.252 43.06C108.105 43.06 108.812 42.7533 109.372 42.14C109.959 41.5267 110.252 40.7667 110.252 39.86V37.9H107.452C107.319 37.9 107.252 37.8333 107.252 37.7V33.22C107.252 33.0867 107.319 33.02 107.452 33.02H114.932C115.039 33.02 115.092 33.0867 115.092 33.22V39.86C115.092 41.3533 114.732 42.7133 114.012 43.94C113.319 45.14 112.385 46.1 111.212 46.82C110.039 47.54 108.719 47.9 107.252 47.9ZM125.34 47.9C123.9 47.9 122.58 47.54 121.38 46.82C120.207 46.0733 119.26 45.1 118.54 43.9C117.82 42.6733 117.46 41.3267 117.46 39.86L117.5 27.18C117.5 25.7133 117.847 24.38 118.54 23.18C119.26 21.98 120.22 21.02 121.42 20.3C122.62 19.58 123.927 19.22 125.34 19.22C126.78 19.22 128.087 19.58 129.26 20.3C130.433 21.02 131.367 21.98 132.06 23.18C132.78 24.38 133.14 25.7133 133.14 27.18L133.18 39.86C133.18 41.3267 132.82 42.6733 132.1 43.9C131.407 45.1 130.46 46.0733 129.26 46.82C128.087 47.54 126.78 47.9 125.34 47.9ZM125.34 43.06C126.14 43.06 126.833 42.74 127.42 42.1C128.033 41.4333 128.34 40.6867 128.34 39.86L128.3 27.18C128.3 26.3 128.02 25.5533 127.46 24.94C126.9 24.3267 126.193 24.02 125.34 24.02C124.513 24.02 123.807 24.3267 123.22 24.94C122.633 25.5267 122.34 26.2733 122.34 27.18V39.86C122.34 40.74 122.633 41.5 123.22 42.14C123.807 42.7533 124.513 43.06 125.34 43.06ZM136.381 47.5C136.274 47.5 136.221 47.4333 136.221 47.3L136.301 19.82C136.301 19.7133 136.354 19.66 136.461 19.66H144.541C145.981 19.66 147.301 20.02 148.501 20.74C149.728 21.4333 150.701 22.38 151.421 23.58C152.141 24.7533 152.501 26.0867 152.501 27.58C152.501 28.5667 152.354 29.46 152.061 30.26C151.768 31.0333 151.421 31.7 151.021 32.26C150.621 32.7933 150.261 33.1933 149.941 33.46C151.381 35.06 152.101 36.94 152.101 39.1L152.141 47.3C152.141 47.4333 152.074 47.5 151.941 47.5H147.421C147.314 47.5 147.261 47.46 147.261 47.38V39.1C147.261 38.14 146.914 37.3133 146.221 36.62C145.554 35.9 144.728 35.54 143.741 35.54H141.101L141.061 47.3C141.061 47.4333 141.008 47.5 140.901 47.5H136.381ZM141.101 30.74H144.541C145.368 30.74 146.101 30.4333 146.741 29.82C147.381 29.2067 147.701 28.46 147.701 27.58C147.701 26.7267 147.381 25.9933 146.741 25.38C146.128 24.7667 145.394 24.46 144.541 24.46H141.101V30.74ZM154.158 47.3L159.118 19.82C159.145 19.7133 159.211 19.66 159.318 19.66H165.118C165.225 19.66 165.291 19.7133 165.318 19.82L170.078 47.3C170.105 47.4333 170.051 47.5 169.918 47.5H165.478C165.371 47.5 165.305 47.4333 165.278 47.3L164.838 44.38H159.398L158.958 47.3C158.931 47.4333 158.865 47.5 158.758 47.5H154.318C154.211 47.5 154.158 47.4333 154.158 47.3ZM160.198 40.1H164.038L162.398 28.86L162.158 27.38L161.998 28.86L160.198 40.1ZM185.716 47.9C184.276 47.9 182.956 47.54 181.756 46.82C180.583 46.0733 179.636 45.1 178.916 43.9C178.223 42.6733 177.876 41.3267 177.876 39.86V38.02C177.876 37.8867 177.943 37.82 178.076 37.82H182.556C182.663 37.82 182.716 37.8867 182.716 38.02V39.86C182.716 40.74 183.01 41.5 183.596 42.14C184.183 42.7533 184.89 43.06 185.716 43.06C186.543 43.06 187.25 42.74 187.836 42.1C188.423 41.46 188.716 40.7133 188.716 39.86C188.716 38.8733 188.076 38.02 186.796 37.3C186.37 37.06 185.703 36.6867 184.796 36.18C183.89 35.6733 183.036 35.1933 182.236 34.74C180.77 33.8867 179.676 32.82 178.956 31.54C178.263 30.2333 177.916 28.7667 177.916 27.14C177.916 25.6467 178.276 24.3133 178.996 23.14C179.716 21.94 180.663 20.9933 181.836 20.3C183.036 19.6067 184.33 19.26 185.716 19.26C187.13 19.26 188.423 19.62 189.596 20.34C190.796 21.0333 191.743 21.98 192.436 23.18C193.156 24.3533 193.516 25.6733 193.516 27.14V30.42C193.516 30.5267 193.463 30.58 193.356 30.58H188.876C188.77 30.58 188.716 30.5267 188.716 30.42L188.676 27.14C188.676 26.2067 188.383 25.4467 187.796 24.86C187.21 24.2733 186.516 23.98 185.716 23.98C184.89 23.98 184.183 24.3 183.596 24.94C183.01 25.5533 182.716 26.2867 182.716 27.14C182.716 28.02 182.903 28.7533 183.276 29.34C183.65 29.9267 184.33 30.4867 185.316 31.02C185.45 31.1 185.703 31.2467 186.076 31.46C186.476 31.6467 186.903 31.8733 187.356 32.14C187.81 32.38 188.21 32.5933 188.556 32.78C188.93 32.9667 189.156 33.0867 189.236 33.14C190.57 33.8867 191.623 34.8067 192.396 35.9C193.17 36.9667 193.556 38.2867 193.556 39.86C193.556 41.38 193.196 42.7533 192.476 43.98C191.783 45.18 190.836 46.14 189.636 46.86C188.463 47.5533 187.156 47.9 185.716 47.9ZM200.143 47.5C200.036 47.5 199.983 47.4333 199.983 47.3V24.5H194.783C194.65 24.5 194.583 24.4333 194.583 24.3L194.623 19.82C194.623 19.7133 194.676 19.66 194.783 19.66H209.983C210.116 19.66 210.183 19.7133 210.183 19.82V24.3C210.183 24.4333 210.13 24.5 210.023 24.5H204.783L204.823 47.3C204.823 47.4333 204.77 47.5 204.663 47.5H200.143ZM208.963 47.3L213.923 19.82C213.949 19.7133 214.016 19.66 214.123 19.66H219.923C220.029 19.66 220.096 19.7133 220.123 19.82L224.883 47.3C224.909 47.4333 224.856 47.5 224.723 47.5H220.283C220.176 47.5 220.109 47.4333 220.083 47.3L219.643 44.38H214.203L213.763 47.3C213.736 47.4333 213.669 47.5 213.563 47.5H209.123C209.016 47.5 208.963 47.4333 208.963 47.3ZM215.003 40.1H218.843L217.203 28.86L216.963 27.38L216.803 28.86L215.003 40.1ZM229.479 47.5C229.372 47.5 229.319 47.4333 229.319 47.3V24.5H224.119C223.986 24.5 223.919 24.4333 223.919 24.3L223.959 19.82C223.959 19.7133 224.012 19.66 224.119 19.66H239.319C239.452 19.66 239.519 19.7133 239.519 19.82V24.3C239.519 24.4333 239.466 24.5 239.359 24.5H234.119L234.159 47.3C234.159 47.4333 234.106 47.5 233.999 47.5H229.479ZM241.655 47.5C241.548 47.5 241.495 47.4333 241.495 47.3L241.535 19.82C241.535 19.7133 241.588 19.66 241.695 19.66H254.535C254.641 19.66 254.695 19.7267 254.695 19.86V24.34C254.695 24.4467 254.641 24.5 254.535 24.5H246.335V30.74H254.535C254.641 30.74 254.695 30.7933 254.695 30.9L254.735 35.42C254.735 35.5267 254.681 35.58 254.575 35.58H246.335V42.58H254.575C254.681 42.58 254.735 42.6467 254.735 42.78V47.34C254.735 47.4467 254.681 47.5 254.575 47.5H241.655ZM264.857 47.9C263.417 47.9 262.097 47.54 260.897 46.82C259.724 46.0733 258.777 45.1 258.057 43.9C257.364 42.6733 257.017 41.3267 257.017 39.86V38.02C257.017 37.8867 257.084 37.82 257.217 37.82H261.697C261.804 37.82 261.857 37.8867 261.857 38.02V39.86C261.857 40.74 262.15 41.5 262.737 42.14C263.324 42.7533 264.03 43.06 264.857 43.06C265.684 43.06 266.39 42.74 266.977 42.1C267.564 41.46 267.857 40.7133 267.857 39.86C267.857 38.8733 267.217 38.02 265.937 37.3C265.51 37.06 264.844 36.6867 263.937 36.18C263.03 35.6733 262.177 35.1933 261.377 34.74C259.91 33.8867 258.817 32.82 258.097 31.54C257.404 30.2333 257.057 28.7667 257.057 27.14C257.057 25.6467 257.417 24.3133 258.137 23.14C258.857 21.94 259.804 20.9933 260.977 20.3C262.177 19.6067 263.47 19.26 264.857 19.26C266.27 19.26 267.564 19.62 268.737 20.34C269.937 21.0333 270.884 21.98 271.577 23.18C272.297 24.3533 272.657 25.6733 272.657 27.14V30.42C272.657 30.5267 272.604 30.58 272.497 30.58H268.017C267.91 30.58 267.857 30.5267 267.857 30.42L267.817 27.14C267.817 26.2067 267.524 25.4467 266.937 24.86C266.35 24.2733 265.657 23.98 264.857 23.98C264.03 23.98 263.324 24.3 262.737 24.94C262.15 25.5533 261.857 26.2867 261.857 27.14C261.857 28.02 262.044 28.7533 262.417 29.34C262.79 29.9267 263.47 30.4867 264.457 31.02C264.59 31.1 264.844 31.2467 265.217 31.46C265.617 31.6467 266.044 31.8733 266.497 32.14C266.95 32.38 267.35 32.5933 267.697 32.78C268.07 32.9667 268.297 33.0867 268.377 33.14C269.71 33.8867 270.764 34.8067 271.537 35.9C272.31 36.9667 272.697 38.2867 272.697 39.86C272.697 41.38 272.337 42.7533 271.617 43.98C270.924 45.18 269.977 46.14 268.777 46.86C267.604 47.5533 266.297 47.9 264.857 47.9Z" fill="white"/>
</svg>
