<?xml version="1.0" encoding="utf-8"?>
<!-- Svg Vector Icons : http://www.onlinewebfonts.com/icon -->
<!DOCTYPE svg PUBLIC "-//W3C//DTD SVG 1.1//EN" "http://www.w3.org/Graphics/SVG/1.1/DTD/svg11.dtd">
<svg version="1.1" xmlns="http://www.w3.org/2000/svg" xmlns:xlink="http://www.w3.org/1999/xlink" x="0px" y="0px" viewBox="0 0 1000 1000" enable-background="new 0 0 1000 1000" xml:space="preserve">
<metadata> Svg Vector Icons : http://www.onlinewebfonts.com/icon </metadata>
<g><path d="M500,10C229.8,10,10,229.8,10,500c0,270.2,219.8,490,490,490c270.2,0,490-219.8,490-490C990,229.8,770.2,10,500,10z M500,917.9C269.5,917.9,82.1,730.5,82.1,500C82.1,269.5,269.5,82.1,500,82.1c230.5,0,417.9,187.5,417.9,417.9C917.9,730.5,730.5,917.9,500,917.9z"/><path d="M500,157.9c-188.6,0-342.1,153.5-342.1,342.1c0,188.6,153.5,342.1,342.1,342.1S842.1,688.6,842.1,500C842.1,311.4,688.6,157.9,500,157.9z"/></g>
</svg>