<svg width="49" height="49" viewBox="0 0 49 49" fill="none" xmlns="http://www.w3.org/2000/svg">
<rect width="49" height="49" rx="24.5" fill="#637CFF"/>
<path d="M25.0272 14.9042C25.4665 14.9042 25.8297 15.2304 25.8872 15.654L25.8952 15.7717L25.8966 24.1597H34.288C34.7672 24.1597 35.1557 24.5482 35.1557 25.0274C35.1557 25.4667 34.8292 25.8298 34.4058 25.8873L34.288 25.8951H25.8966L25.8989 34.282C25.899 34.7612 25.5106 35.1499 25.0314 35.1499C24.5921 35.1499 24.2289 34.8236 24.1714 34.4001L24.1634 34.2823L24.1611 25.8951H15.7744C15.2952 25.8951 14.9067 25.5066 14.9067 25.0274C14.9067 24.5881 15.2332 24.2251 15.6567 24.1676L15.7744 24.1597H24.1611L24.1597 15.7721C24.1596 15.2928 24.548 14.9042 25.0272 14.9042Z" fill="white"/>
</svg>
