<svg width="256" height="62" viewBox="0 0 256 62" fill="none" xmlns="http://www.w3.org/2000/svg">
<mask id="path-1-outside-1_7_439" maskUnits="userSpaceOnUse" x="6" y="4" width="250" height="58" fill="black">
<rect fill="white" x="6" y="4" width="250" height="58"/>
<path d="M57.5213 5.384L52.3372 28.04H43.5052L40.8812 15.176L38.2573 28.04H29.4253L24.2412 5.384H31.8893L33.9373 19.656L37.0093 5.384H44.7533L47.8252 19.656L49.8733 5.384H57.5213Z"/>
<path d="M67.1728 11.048V13.832H74.2128V19.176H67.1728V22.376H75.1728V28.04H60.0687V5.384H75.1728V11.048H67.1728Z"/>
<path d="M84.954 22.664H91.802V28.04H77.85V5.384H84.954V22.664Z"/>
<path d="M93.3975 16.68C93.3975 14.44 93.8455 12.4453 94.7415 10.696C95.6588 8.94667 96.9602 7.592 98.6455 6.632C100.331 5.65067 102.315 5.16 104.598 5.16C106.56 5.16 108.31 5.53333 109.846 6.28C111.403 7.00533 112.662 8.04 113.622 9.384C114.603 10.728 115.254 12.296 115.574 14.088H108.086C107.744 13.3413 107.254 12.7653 106.614 12.36C105.995 11.9333 105.28 11.72 104.469 11.72C103.275 11.72 102.326 12.168 101.621 13.064C100.939 13.96 100.598 15.1653 100.598 16.68C100.598 18.1947 100.939 19.4 101.621 20.296C102.326 21.192 103.275 21.64 104.469 21.64C105.28 21.64 105.995 21.4373 106.614 21.032C107.254 20.6053 107.744 20.0187 108.086 19.272H115.574C115.254 21.064 114.603 22.632 113.622 23.976C112.662 25.32 111.403 26.3653 109.846 27.112C108.31 27.8373 106.56 28.2 104.598 28.2C102.315 28.2 100.331 27.72 98.6455 26.76C96.9602 25.7787 95.6588 24.4133 94.7415 22.664C93.8455 20.9147 93.3975 18.92 93.3975 16.68Z"/>
<path d="M129.171 28.264C127.038 28.264 125.075 27.7627 123.283 26.76C121.513 25.7573 120.105 24.3707 119.059 22.6C118.014 20.8293 117.491 18.8347 117.491 16.616C117.491 14.3973 118.014 12.4027 119.059 10.632C120.105 8.86133 121.513 7.48533 123.283 6.504C125.075 5.50133 127.038 5 129.171 5C131.305 5 133.257 5.50133 135.027 6.504C136.798 7.48533 138.195 8.86133 139.219 10.632C140.265 12.4027 140.787 14.3973 140.787 16.616C140.787 18.8347 140.265 20.8293 139.219 22.6C138.195 24.3707 136.787 25.7573 134.995 26.76C133.225 27.7627 131.283 28.264 129.171 28.264ZM129.171 21.64C130.579 21.64 131.667 21.192 132.435 20.296C133.203 19.3787 133.587 18.152 133.587 16.616C133.587 15.0587 133.203 13.832 132.435 12.936C131.667 12.0187 130.579 11.56 129.171 11.56C127.742 11.56 126.643 12.0187 125.875 12.936C125.107 13.832 124.723 15.0587 124.723 16.616C124.723 18.152 125.107 19.3787 125.875 20.296C126.643 21.192 127.742 21.64 129.171 21.64Z"/>
<path d="M170.582 5.384V28.04H163.51V16.744L160.022 28.04H153.942L150.454 16.744V28.04H143.35V5.384H152.054L157.046 18.984L161.91 5.384H170.582Z"/>
<path d="M180.891 11.048V13.832H187.932V19.176H180.891V22.376H188.891V28.04H173.788V5.384H188.891V11.048H180.891Z"/>
<path d="M214.798 5.384V11.016H208.782V28.04H201.678V11.016H195.726V5.384H214.798Z"/>
<path d="M227.765 28.264C225.632 28.264 223.669 27.7627 221.877 26.76C220.106 25.7573 218.698 24.3707 217.653 22.6C216.608 20.8293 216.085 18.8347 216.085 16.616C216.085 14.3973 216.608 12.4027 217.653 10.632C218.698 8.86133 220.106 7.48533 221.877 6.504C223.669 5.50133 225.632 5 227.765 5C229.898 5 231.85 5.50133 233.621 6.504C235.392 7.48533 236.789 8.86133 237.813 10.632C238.858 12.4027 239.381 14.3973 239.381 16.616C239.381 18.8347 238.858 20.8293 237.813 22.6C236.789 24.3707 235.381 25.7573 233.589 26.76C231.818 27.7627 229.877 28.264 227.765 28.264ZM227.765 21.64C229.173 21.64 230.261 21.192 231.029 20.296C231.797 19.3787 232.181 18.152 232.181 16.616C232.181 15.0587 231.797 13.832 231.029 12.936C230.261 12.0187 229.173 11.56 227.765 11.56C226.336 11.56 225.237 12.0187 224.469 12.936C223.701 13.832 223.317 15.0587 223.317 16.616C223.317 18.152 223.701 19.3787 224.469 20.296C225.237 21.192 226.336 21.64 227.765 21.64Z"/>
<path d="M24.128 56.616H16.576L15.456 60.04H8L16.288 37.384H24.48L32.736 60.04H25.248L24.128 56.616ZM22.4 51.272L20.352 44.968L18.304 51.272H22.4Z"/>
<path d="M48.238 45.128C47.9607 44.68 47.566 44.3387 47.054 44.104C46.542 43.848 45.9233 43.72 45.198 43.72C43.8327 43.72 42.7767 44.168 42.03 45.064C41.2833 45.9387 40.91 47.144 40.91 48.68C40.91 50.4507 41.326 51.7733 42.158 52.648C42.99 53.5227 44.27 53.96 45.998 53.96C47.6407 53.96 48.9633 53.2987 49.966 51.976H44.302V46.952H55.854V54.056C54.8727 55.7413 53.518 57.192 51.79 58.408C50.062 59.6027 47.8753 60.2 45.23 60.2C42.8833 60.2 40.8353 59.72 39.086 58.76C37.358 57.7787 36.0247 56.4133 35.086 54.664C34.1687 52.9147 33.71 50.92 33.71 48.68C33.71 46.44 34.1687 44.4453 35.086 42.696C36.0247 40.9467 37.358 39.592 39.086 38.632C40.814 37.6507 42.8407 37.16 45.166 37.16C48.1313 37.16 50.542 37.8747 52.398 39.304C54.2753 40.7333 55.3847 42.6747 55.726 45.128H48.238Z"/>
<path d="M69.4525 60.264C67.3192 60.264 65.3565 59.7627 63.5645 58.76C61.7938 57.7573 60.3858 56.3707 59.3405 54.6C58.2952 52.8293 57.7725 50.8347 57.7725 48.616C57.7725 46.3973 58.2952 44.4027 59.3405 42.632C60.3858 40.8613 61.7938 39.4853 63.5645 38.504C65.3565 37.5013 67.3192 37 69.4525 37C71.5858 37 73.5378 37.5013 75.3085 38.504C77.0792 39.4853 78.4765 40.8613 79.5005 42.632C80.5458 44.4027 81.0685 46.3973 81.0685 48.616C81.0685 50.8347 80.5458 52.8293 79.5005 54.6C78.4765 56.3707 77.0685 57.7573 75.2765 58.76C73.5058 59.7627 71.5645 60.264 69.4525 60.264ZM69.4525 53.64C70.8605 53.64 71.9485 53.192 72.7165 52.296C73.4845 51.3787 73.8685 50.152 73.8685 48.616C73.8685 47.0587 73.4845 45.832 72.7165 44.936C71.9485 44.0187 70.8605 43.56 69.4525 43.56C68.0232 43.56 66.9245 44.0187 66.1565 44.936C65.3885 45.832 65.0045 47.0587 65.0045 48.616C65.0045 50.152 65.3885 51.3787 66.1565 52.296C66.9245 53.192 68.0232 53.64 69.4525 53.64Z"/>
<path d="M95.0233 60.04L90.7673 51.912H90.7353V60.04H83.6312V37.384H94.1913C96.0259 37.384 97.5939 37.7147 98.8952 38.376C100.197 39.016 101.167 39.9013 101.807 41.032C102.469 42.1413 102.799 43.4 102.799 44.808C102.799 46.3227 102.373 47.6667 101.519 48.84C100.687 50.0133 99.4819 50.856 97.9033 51.368L102.831 60.04H95.0233ZM90.7353 47.176H93.5513C94.2339 47.176 94.7459 47.0267 95.0872 46.728C95.4286 46.408 95.5993 45.9173 95.5993 45.256C95.5993 44.6587 95.4179 44.1893 95.0553 43.848C94.7139 43.5067 94.2126 43.336 93.5513 43.336H90.7353V47.176Z"/>
<path d="M119.597 56.616H112.045L110.925 60.04H103.469L111.757 37.384H119.949L128.205 60.04H120.717L119.597 56.616ZM117.869 51.272L115.821 44.968L113.773 51.272H117.869Z"/>
<path d="M144.12 60.264C141.411 60.264 139.171 59.6347 137.4 58.376C135.651 57.096 134.702 55.2293 134.552 52.776H142.104C142.211 54.0773 142.787 54.728 143.832 54.728C144.216 54.728 144.536 54.6427 144.792 54.472C145.07 54.28 145.208 53.992 145.208 53.608C145.208 53.0747 144.92 52.648 144.344 52.328C143.768 51.9867 142.872 51.6027 141.656 51.176C140.206 50.664 139 50.1627 138.04 49.672C137.102 49.1813 136.291 48.4667 135.608 47.528C134.926 46.5893 134.595 45.384 134.616 43.912C134.616 42.44 134.99 41.192 135.736 40.168C136.504 39.1227 137.539 38.3333 138.84 37.8C140.163 37.2667 141.646 37 143.288 37C146.062 37 148.259 37.64 149.88 38.92C151.523 40.2 152.387 42.0027 152.472 44.328H144.824C144.803 43.688 144.643 43.2293 144.344 42.952C144.046 42.6747 143.683 42.536 143.256 42.536C142.958 42.536 142.712 42.6427 142.52 42.856C142.328 43.048 142.232 43.3253 142.232 43.688C142.232 44.2 142.51 44.6267 143.064 44.968C143.64 45.288 144.547 45.6827 145.784 46.152C147.214 46.6853 148.387 47.1973 149.304 47.688C150.243 48.1787 151.054 48.8613 151.736 49.736C152.419 50.6107 152.76 51.7093 152.76 53.032C152.76 54.4187 152.419 55.6667 151.736 56.776C151.054 57.864 150.062 58.7173 148.76 59.336C147.459 59.9547 145.912 60.264 144.12 60.264Z"/>
<path d="M173.048 37.384V43.016H167.032V60.04H159.928V43.016H153.976V37.384H173.048Z"/>
<path d="M189.503 56.616H181.951L180.831 60.04H173.375L181.663 37.384H189.855L198.111 60.04H190.623L189.503 56.616ZM187.775 51.272L185.727 44.968L183.679 51.272H187.775Z"/>
<path d="M217.517 37.384V43.016H211.501V60.04H204.397V43.016H198.445V37.384H217.517Z"/>
<path d="M226.548 43.048V45.832H233.588V51.176H226.548V54.376H234.548V60.04H219.444V37.384H234.548V43.048H226.548Z"/>
<path d="M246.089 60.264C243.38 60.264 241.14 59.6347 239.369 58.376C237.62 57.096 236.67 55.2293 236.521 52.776H244.073C244.18 54.0773 244.756 54.728 245.801 54.728C246.185 54.728 246.505 54.6427 246.761 54.472C247.038 54.28 247.177 53.992 247.177 53.608C247.177 53.0747 246.889 52.648 246.313 52.328C245.737 51.9867 244.841 51.6027 243.625 51.176C242.174 50.664 240.969 50.1627 240.009 49.672C239.07 49.1813 238.26 48.4667 237.577 47.528C236.894 46.5893 236.564 45.384 236.585 43.912C236.585 42.44 236.958 41.192 237.705 40.168C238.473 39.1227 239.508 38.3333 240.809 37.8C242.132 37.2667 243.614 37 245.257 37C248.03 37 250.228 37.64 251.849 38.92C253.492 40.2 254.356 42.0027 254.441 44.328H246.793C246.772 43.688 246.612 43.2293 246.313 42.952C246.014 42.6747 245.652 42.536 245.225 42.536C244.926 42.536 244.681 42.6427 244.489 42.856C244.297 43.048 244.201 43.3253 244.201 43.688C244.201 44.2 244.478 44.6267 245.033 44.968C245.609 45.288 246.516 45.6827 247.753 46.152C249.182 46.6853 250.356 47.1973 251.273 47.688C252.212 48.1787 253.022 48.8613 253.705 49.736C254.388 50.6107 254.729 51.7093 254.729 53.032C254.729 54.4187 254.388 55.6667 253.705 56.776C253.022 57.864 252.03 58.7173 250.729 59.336C249.428 59.9547 247.881 60.264 246.089 60.264Z"/>
</mask>
<path d="M57.5213 5.384L52.3372 28.04H43.5052L40.8812 15.176L38.2573 28.04H29.4253L24.2412 5.384H31.8893L33.9373 19.656L37.0093 5.384H44.7533L47.8252 19.656L49.8733 5.384H57.5213Z" fill="#E21F7E"/>
<path d="M67.1728 11.048V13.832H74.2128V19.176H67.1728V22.376H75.1728V28.04H60.0687V5.384H75.1728V11.048H67.1728Z" fill="#E21F7E"/>
<path d="M84.954 22.664H91.802V28.04H77.85V5.384H84.954V22.664Z" fill="#E21F7E"/>
<path d="M93.3975 16.68C93.3975 14.44 93.8455 12.4453 94.7415 10.696C95.6588 8.94667 96.9602 7.592 98.6455 6.632C100.331 5.65067 102.315 5.16 104.598 5.16C106.56 5.16 108.31 5.53333 109.846 6.28C111.403 7.00533 112.662 8.04 113.622 9.384C114.603 10.728 115.254 12.296 115.574 14.088H108.086C107.744 13.3413 107.254 12.7653 106.614 12.36C105.995 11.9333 105.28 11.72 104.469 11.72C103.275 11.72 102.326 12.168 101.621 13.064C100.939 13.96 100.598 15.1653 100.598 16.68C100.598 18.1947 100.939 19.4 101.621 20.296C102.326 21.192 103.275 21.64 104.469 21.64C105.28 21.64 105.995 21.4373 106.614 21.032C107.254 20.6053 107.744 20.0187 108.086 19.272H115.574C115.254 21.064 114.603 22.632 113.622 23.976C112.662 25.32 111.403 26.3653 109.846 27.112C108.31 27.8373 106.56 28.2 104.598 28.2C102.315 28.2 100.331 27.72 98.6455 26.76C96.9602 25.7787 95.6588 24.4133 94.7415 22.664C93.8455 20.9147 93.3975 18.92 93.3975 16.68Z" fill="#E21F7E"/>
<path d="M129.171 28.264C127.038 28.264 125.075 27.7627 123.283 26.76C121.513 25.7573 120.105 24.3707 119.059 22.6C118.014 20.8293 117.491 18.8347 117.491 16.616C117.491 14.3973 118.014 12.4027 119.059 10.632C120.105 8.86133 121.513 7.48533 123.283 6.504C125.075 5.50133 127.038 5 129.171 5C131.305 5 133.257 5.50133 135.027 6.504C136.798 7.48533 138.195 8.86133 139.219 10.632C140.265 12.4027 140.787 14.3973 140.787 16.616C140.787 18.8347 140.265 20.8293 139.219 22.6C138.195 24.3707 136.787 25.7573 134.995 26.76C133.225 27.7627 131.283 28.264 129.171 28.264ZM129.171 21.64C130.579 21.64 131.667 21.192 132.435 20.296C133.203 19.3787 133.587 18.152 133.587 16.616C133.587 15.0587 133.203 13.832 132.435 12.936C131.667 12.0187 130.579 11.56 129.171 11.56C127.742 11.56 126.643 12.0187 125.875 12.936C125.107 13.832 124.723 15.0587 124.723 16.616C124.723 18.152 125.107 19.3787 125.875 20.296C126.643 21.192 127.742 21.64 129.171 21.64Z" fill="#E21F7E"/>
<path d="M170.582 5.384V28.04H163.51V16.744L160.022 28.04H153.942L150.454 16.744V28.04H143.35V5.384H152.054L157.046 18.984L161.91 5.384H170.582Z" fill="#E21F7E"/>
<path d="M180.891 11.048V13.832H187.932V19.176H180.891V22.376H188.891V28.04H173.788V5.384H188.891V11.048H180.891Z" fill="#E21F7E"/>
<path d="M214.798 5.384V11.016H208.782V28.04H201.678V11.016H195.726V5.384H214.798Z" fill="#E21F7E"/>
<path d="M227.765 28.264C225.632 28.264 223.669 27.7627 221.877 26.76C220.106 25.7573 218.698 24.3707 217.653 22.6C216.608 20.8293 216.085 18.8347 216.085 16.616C216.085 14.3973 216.608 12.4027 217.653 10.632C218.698 8.86133 220.106 7.48533 221.877 6.504C223.669 5.50133 225.632 5 227.765 5C229.898 5 231.85 5.50133 233.621 6.504C235.392 7.48533 236.789 8.86133 237.813 10.632C238.858 12.4027 239.381 14.3973 239.381 16.616C239.381 18.8347 238.858 20.8293 237.813 22.6C236.789 24.3707 235.381 25.7573 233.589 26.76C231.818 27.7627 229.877 28.264 227.765 28.264ZM227.765 21.64C229.173 21.64 230.261 21.192 231.029 20.296C231.797 19.3787 232.181 18.152 232.181 16.616C232.181 15.0587 231.797 13.832 231.029 12.936C230.261 12.0187 229.173 11.56 227.765 11.56C226.336 11.56 225.237 12.0187 224.469 12.936C223.701 13.832 223.317 15.0587 223.317 16.616C223.317 18.152 223.701 19.3787 224.469 20.296C225.237 21.192 226.336 21.64 227.765 21.64Z" fill="#E21F7E"/>
<path d="M24.128 56.616H16.576L15.456 60.04H8L16.288 37.384H24.48L32.736 60.04H25.248L24.128 56.616ZM22.4 51.272L20.352 44.968L18.304 51.272H22.4Z" fill="#E21F7E"/>
<path d="M48.238 45.128C47.9607 44.68 47.566 44.3387 47.054 44.104C46.542 43.848 45.9233 43.72 45.198 43.72C43.8327 43.72 42.7767 44.168 42.03 45.064C41.2833 45.9387 40.91 47.144 40.91 48.68C40.91 50.4507 41.326 51.7733 42.158 52.648C42.99 53.5227 44.27 53.96 45.998 53.96C47.6407 53.96 48.9633 53.2987 49.966 51.976H44.302V46.952H55.854V54.056C54.8727 55.7413 53.518 57.192 51.79 58.408C50.062 59.6027 47.8753 60.2 45.23 60.2C42.8833 60.2 40.8353 59.72 39.086 58.76C37.358 57.7787 36.0247 56.4133 35.086 54.664C34.1687 52.9147 33.71 50.92 33.71 48.68C33.71 46.44 34.1687 44.4453 35.086 42.696C36.0247 40.9467 37.358 39.592 39.086 38.632C40.814 37.6507 42.8407 37.16 45.166 37.16C48.1313 37.16 50.542 37.8747 52.398 39.304C54.2753 40.7333 55.3847 42.6747 55.726 45.128H48.238Z" fill="#E21F7E"/>
<path d="M69.4525 60.264C67.3192 60.264 65.3565 59.7627 63.5645 58.76C61.7938 57.7573 60.3858 56.3707 59.3405 54.6C58.2952 52.8293 57.7725 50.8347 57.7725 48.616C57.7725 46.3973 58.2952 44.4027 59.3405 42.632C60.3858 40.8613 61.7938 39.4853 63.5645 38.504C65.3565 37.5013 67.3192 37 69.4525 37C71.5858 37 73.5378 37.5013 75.3085 38.504C77.0792 39.4853 78.4765 40.8613 79.5005 42.632C80.5458 44.4027 81.0685 46.3973 81.0685 48.616C81.0685 50.8347 80.5458 52.8293 79.5005 54.6C78.4765 56.3707 77.0685 57.7573 75.2765 58.76C73.5058 59.7627 71.5645 60.264 69.4525 60.264ZM69.4525 53.64C70.8605 53.64 71.9485 53.192 72.7165 52.296C73.4845 51.3787 73.8685 50.152 73.8685 48.616C73.8685 47.0587 73.4845 45.832 72.7165 44.936C71.9485 44.0187 70.8605 43.56 69.4525 43.56C68.0232 43.56 66.9245 44.0187 66.1565 44.936C65.3885 45.832 65.0045 47.0587 65.0045 48.616C65.0045 50.152 65.3885 51.3787 66.1565 52.296C66.9245 53.192 68.0232 53.64 69.4525 53.64Z" fill="#E21F7E"/>
<path d="M95.0233 60.04L90.7673 51.912H90.7353V60.04H83.6312V37.384H94.1913C96.0259 37.384 97.5939 37.7147 98.8952 38.376C100.197 39.016 101.167 39.9013 101.807 41.032C102.469 42.1413 102.799 43.4 102.799 44.808C102.799 46.3227 102.373 47.6667 101.519 48.84C100.687 50.0133 99.4819 50.856 97.9033 51.368L102.831 60.04H95.0233ZM90.7353 47.176H93.5513C94.2339 47.176 94.7459 47.0267 95.0872 46.728C95.4286 46.408 95.5993 45.9173 95.5993 45.256C95.5993 44.6587 95.4179 44.1893 95.0553 43.848C94.7139 43.5067 94.2126 43.336 93.5513 43.336H90.7353V47.176Z" fill="#E21F7E"/>
<path d="M119.597 56.616H112.045L110.925 60.04H103.469L111.757 37.384H119.949L128.205 60.04H120.717L119.597 56.616ZM117.869 51.272L115.821 44.968L113.773 51.272H117.869Z" fill="#E21F7E"/>
<path d="M144.12 60.264C141.411 60.264 139.171 59.6347 137.4 58.376C135.651 57.096 134.702 55.2293 134.552 52.776H142.104C142.211 54.0773 142.787 54.728 143.832 54.728C144.216 54.728 144.536 54.6427 144.792 54.472C145.07 54.28 145.208 53.992 145.208 53.608C145.208 53.0747 144.92 52.648 144.344 52.328C143.768 51.9867 142.872 51.6027 141.656 51.176C140.206 50.664 139 50.1627 138.04 49.672C137.102 49.1813 136.291 48.4667 135.608 47.528C134.926 46.5893 134.595 45.384 134.616 43.912C134.616 42.44 134.99 41.192 135.736 40.168C136.504 39.1227 137.539 38.3333 138.84 37.8C140.163 37.2667 141.646 37 143.288 37C146.062 37 148.259 37.64 149.88 38.92C151.523 40.2 152.387 42.0027 152.472 44.328H144.824C144.803 43.688 144.643 43.2293 144.344 42.952C144.046 42.6747 143.683 42.536 143.256 42.536C142.958 42.536 142.712 42.6427 142.52 42.856C142.328 43.048 142.232 43.3253 142.232 43.688C142.232 44.2 142.51 44.6267 143.064 44.968C143.64 45.288 144.547 45.6827 145.784 46.152C147.214 46.6853 148.387 47.1973 149.304 47.688C150.243 48.1787 151.054 48.8613 151.736 49.736C152.419 50.6107 152.76 51.7093 152.76 53.032C152.76 54.4187 152.419 55.6667 151.736 56.776C151.054 57.864 150.062 58.7173 148.76 59.336C147.459 59.9547 145.912 60.264 144.12 60.264Z" fill="#E21F7E"/>
<path d="M173.048 37.384V43.016H167.032V60.04H159.928V43.016H153.976V37.384H173.048Z" fill="#E21F7E"/>
<path d="M189.503 56.616H181.951L180.831 60.04H173.375L181.663 37.384H189.855L198.111 60.04H190.623L189.503 56.616ZM187.775 51.272L185.727 44.968L183.679 51.272H187.775Z" fill="#E21F7E"/>
<path d="M217.517 37.384V43.016H211.501V60.04H204.397V43.016H198.445V37.384H217.517Z" fill="#E21F7E"/>
<path d="M226.548 43.048V45.832H233.588V51.176H226.548V54.376H234.548V60.04H219.444V37.384H234.548V43.048H226.548Z" fill="#E21F7E"/>
<path d="M246.089 60.264C243.38 60.264 241.14 59.6347 239.369 58.376C237.62 57.096 236.67 55.2293 236.521 52.776H244.073C244.18 54.0773 244.756 54.728 245.801 54.728C246.185 54.728 246.505 54.6427 246.761 54.472C247.038 54.28 247.177 53.992 247.177 53.608C247.177 53.0747 246.889 52.648 246.313 52.328C245.737 51.9867 244.841 51.6027 243.625 51.176C242.174 50.664 240.969 50.1627 240.009 49.672C239.07 49.1813 238.26 48.4667 237.577 47.528C236.894 46.5893 236.564 45.384 236.585 43.912C236.585 42.44 236.958 41.192 237.705 40.168C238.473 39.1227 239.508 38.3333 240.809 37.8C242.132 37.2667 243.614 37 245.257 37C248.03 37 250.228 37.64 251.849 38.92C253.492 40.2 254.356 42.0027 254.441 44.328H246.793C246.772 43.688 246.612 43.2293 246.313 42.952C246.014 42.6747 245.652 42.536 245.225 42.536C244.926 42.536 244.681 42.6427 244.489 42.856C244.297 43.048 244.201 43.3253 244.201 43.688C244.201 44.2 244.478 44.6267 245.033 44.968C245.609 45.288 246.516 45.6827 247.753 46.152C249.182 46.6853 250.356 47.1973 251.273 47.688C252.212 48.1787 253.022 48.8613 253.705 49.736C254.388 50.6107 254.729 51.7093 254.729 53.032C254.729 54.4187 254.388 55.6667 253.705 56.776C253.022 57.864 252.03 58.7173 250.729 59.336C249.428 59.9547 247.881 60.264 246.089 60.264Z" fill="#E21F7E"/>
<path d="M57.5213 5.384L52.3372 28.04H43.5052L40.8812 15.176L38.2573 28.04H29.4253L24.2412 5.384H31.8893L33.9373 19.656L37.0093 5.384H44.7533L47.8252 19.656L49.8733 5.384H57.5213Z" stroke="#2E2E2E" stroke-width="2" mask="url(#path-1-outside-1_7_439)"/>
<path d="M67.1728 11.048V13.832H74.2128V19.176H67.1728V22.376H75.1728V28.04H60.0687V5.384H75.1728V11.048H67.1728Z" stroke="#2E2E2E" stroke-width="2" mask="url(#path-1-outside-1_7_439)"/>
<path d="M84.954 22.664H91.802V28.04H77.85V5.384H84.954V22.664Z" stroke="#2E2E2E" stroke-width="2" mask="url(#path-1-outside-1_7_439)"/>
<path d="M93.3975 16.68C93.3975 14.44 93.8455 12.4453 94.7415 10.696C95.6588 8.94667 96.9602 7.592 98.6455 6.632C100.331 5.65067 102.315 5.16 104.598 5.16C106.56 5.16 108.31 5.53333 109.846 6.28C111.403 7.00533 112.662 8.04 113.622 9.384C114.603 10.728 115.254 12.296 115.574 14.088H108.086C107.744 13.3413 107.254 12.7653 106.614 12.36C105.995 11.9333 105.28 11.72 104.469 11.72C103.275 11.72 102.326 12.168 101.621 13.064C100.939 13.96 100.598 15.1653 100.598 16.68C100.598 18.1947 100.939 19.4 101.621 20.296C102.326 21.192 103.275 21.64 104.469 21.64C105.28 21.64 105.995 21.4373 106.614 21.032C107.254 20.6053 107.744 20.0187 108.086 19.272H115.574C115.254 21.064 114.603 22.632 113.622 23.976C112.662 25.32 111.403 26.3653 109.846 27.112C108.31 27.8373 106.56 28.2 104.598 28.2C102.315 28.2 100.331 27.72 98.6455 26.76C96.9602 25.7787 95.6588 24.4133 94.7415 22.664C93.8455 20.9147 93.3975 18.92 93.3975 16.68Z" stroke="#2E2E2E" stroke-width="2" mask="url(#path-1-outside-1_7_439)"/>
<path d="M129.171 28.264C127.038 28.264 125.075 27.7627 123.283 26.76C121.513 25.7573 120.105 24.3707 119.059 22.6C118.014 20.8293 117.491 18.8347 117.491 16.616C117.491 14.3973 118.014 12.4027 119.059 10.632C120.105 8.86133 121.513 7.48533 123.283 6.504C125.075 5.50133 127.038 5 129.171 5C131.305 5 133.257 5.50133 135.027 6.504C136.798 7.48533 138.195 8.86133 139.219 10.632C140.265 12.4027 140.787 14.3973 140.787 16.616C140.787 18.8347 140.265 20.8293 139.219 22.6C138.195 24.3707 136.787 25.7573 134.995 26.76C133.225 27.7627 131.283 28.264 129.171 28.264ZM129.171 21.64C130.579 21.64 131.667 21.192 132.435 20.296C133.203 19.3787 133.587 18.152 133.587 16.616C133.587 15.0587 133.203 13.832 132.435 12.936C131.667 12.0187 130.579 11.56 129.171 11.56C127.742 11.56 126.643 12.0187 125.875 12.936C125.107 13.832 124.723 15.0587 124.723 16.616C124.723 18.152 125.107 19.3787 125.875 20.296C126.643 21.192 127.742 21.64 129.171 21.64Z" stroke="#2E2E2E" stroke-width="2" mask="url(#path-1-outside-1_7_439)"/>
<path d="M170.582 5.384V28.04H163.51V16.744L160.022 28.04H153.942L150.454 16.744V28.04H143.35V5.384H152.054L157.046 18.984L161.91 5.384H170.582Z" stroke="#2E2E2E" stroke-width="2" mask="url(#path-1-outside-1_7_439)"/>
<path d="M180.891 11.048V13.832H187.932V19.176H180.891V22.376H188.891V28.04H173.788V5.384H188.891V11.048H180.891Z" stroke="#2E2E2E" stroke-width="2" mask="url(#path-1-outside-1_7_439)"/>
<path d="M214.798 5.384V11.016H208.782V28.04H201.678V11.016H195.726V5.384H214.798Z" stroke="#2E2E2E" stroke-width="2" mask="url(#path-1-outside-1_7_439)"/>
<path d="M227.765 28.264C225.632 28.264 223.669 27.7627 221.877 26.76C220.106 25.7573 218.698 24.3707 217.653 22.6C216.608 20.8293 216.085 18.8347 216.085 16.616C216.085 14.3973 216.608 12.4027 217.653 10.632C218.698 8.86133 220.106 7.48533 221.877 6.504C223.669 5.50133 225.632 5 227.765 5C229.898 5 231.85 5.50133 233.621 6.504C235.392 7.48533 236.789 8.86133 237.813 10.632C238.858 12.4027 239.381 14.3973 239.381 16.616C239.381 18.8347 238.858 20.8293 237.813 22.6C236.789 24.3707 235.381 25.7573 233.589 26.76C231.818 27.7627 229.877 28.264 227.765 28.264ZM227.765 21.64C229.173 21.64 230.261 21.192 231.029 20.296C231.797 19.3787 232.181 18.152 232.181 16.616C232.181 15.0587 231.797 13.832 231.029 12.936C230.261 12.0187 229.173 11.56 227.765 11.56C226.336 11.56 225.237 12.0187 224.469 12.936C223.701 13.832 223.317 15.0587 223.317 16.616C223.317 18.152 223.701 19.3787 224.469 20.296C225.237 21.192 226.336 21.64 227.765 21.64Z" stroke="#2E2E2E" stroke-width="2" mask="url(#path-1-outside-1_7_439)"/>
<path d="M24.128 56.616H16.576L15.456 60.04H8L16.288 37.384H24.48L32.736 60.04H25.248L24.128 56.616ZM22.4 51.272L20.352 44.968L18.304 51.272H22.4Z" stroke="#2E2E2E" stroke-width="2" mask="url(#path-1-outside-1_7_439)"/>
<path d="M48.238 45.128C47.9607 44.68 47.566 44.3387 47.054 44.104C46.542 43.848 45.9233 43.72 45.198 43.72C43.8327 43.72 42.7767 44.168 42.03 45.064C41.2833 45.9387 40.91 47.144 40.91 48.68C40.91 50.4507 41.326 51.7733 42.158 52.648C42.99 53.5227 44.27 53.96 45.998 53.96C47.6407 53.96 48.9633 53.2987 49.966 51.976H44.302V46.952H55.854V54.056C54.8727 55.7413 53.518 57.192 51.79 58.408C50.062 59.6027 47.8753 60.2 45.23 60.2C42.8833 60.2 40.8353 59.72 39.086 58.76C37.358 57.7787 36.0247 56.4133 35.086 54.664C34.1687 52.9147 33.71 50.92 33.71 48.68C33.71 46.44 34.1687 44.4453 35.086 42.696C36.0247 40.9467 37.358 39.592 39.086 38.632C40.814 37.6507 42.8407 37.16 45.166 37.16C48.1313 37.16 50.542 37.8747 52.398 39.304C54.2753 40.7333 55.3847 42.6747 55.726 45.128H48.238Z" stroke="#2E2E2E" stroke-width="2" mask="url(#path-1-outside-1_7_439)"/>
<path d="M69.4525 60.264C67.3192 60.264 65.3565 59.7627 63.5645 58.76C61.7938 57.7573 60.3858 56.3707 59.3405 54.6C58.2952 52.8293 57.7725 50.8347 57.7725 48.616C57.7725 46.3973 58.2952 44.4027 59.3405 42.632C60.3858 40.8613 61.7938 39.4853 63.5645 38.504C65.3565 37.5013 67.3192 37 69.4525 37C71.5858 37 73.5378 37.5013 75.3085 38.504C77.0792 39.4853 78.4765 40.8613 79.5005 42.632C80.5458 44.4027 81.0685 46.3973 81.0685 48.616C81.0685 50.8347 80.5458 52.8293 79.5005 54.6C78.4765 56.3707 77.0685 57.7573 75.2765 58.76C73.5058 59.7627 71.5645 60.264 69.4525 60.264ZM69.4525 53.64C70.8605 53.64 71.9485 53.192 72.7165 52.296C73.4845 51.3787 73.8685 50.152 73.8685 48.616C73.8685 47.0587 73.4845 45.832 72.7165 44.936C71.9485 44.0187 70.8605 43.56 69.4525 43.56C68.0232 43.56 66.9245 44.0187 66.1565 44.936C65.3885 45.832 65.0045 47.0587 65.0045 48.616C65.0045 50.152 65.3885 51.3787 66.1565 52.296C66.9245 53.192 68.0232 53.64 69.4525 53.64Z" stroke="#2E2E2E" stroke-width="2" mask="url(#path-1-outside-1_7_439)"/>
<path d="M95.0233 60.04L90.7673 51.912H90.7353V60.04H83.6312V37.384H94.1913C96.0259 37.384 97.5939 37.7147 98.8952 38.376C100.197 39.016 101.167 39.9013 101.807 41.032C102.469 42.1413 102.799 43.4 102.799 44.808C102.799 46.3227 102.373 47.6667 101.519 48.84C100.687 50.0133 99.4819 50.856 97.9033 51.368L102.831 60.04H95.0233ZM90.7353 47.176H93.5513C94.2339 47.176 94.7459 47.0267 95.0872 46.728C95.4286 46.408 95.5993 45.9173 95.5993 45.256C95.5993 44.6587 95.4179 44.1893 95.0553 43.848C94.7139 43.5067 94.2126 43.336 93.5513 43.336H90.7353V47.176Z" stroke="#2E2E2E" stroke-width="2" mask="url(#path-1-outside-1_7_439)"/>
<path d="M119.597 56.616H112.045L110.925 60.04H103.469L111.757 37.384H119.949L128.205 60.04H120.717L119.597 56.616ZM117.869 51.272L115.821 44.968L113.773 51.272H117.869Z" stroke="#2E2E2E" stroke-width="2" mask="url(#path-1-outside-1_7_439)"/>
<path d="M144.12 60.264C141.411 60.264 139.171 59.6347 137.4 58.376C135.651 57.096 134.702 55.2293 134.552 52.776H142.104C142.211 54.0773 142.787 54.728 143.832 54.728C144.216 54.728 144.536 54.6427 144.792 54.472C145.07 54.28 145.208 53.992 145.208 53.608C145.208 53.0747 144.92 52.648 144.344 52.328C143.768 51.9867 142.872 51.6027 141.656 51.176C140.206 50.664 139 50.1627 138.04 49.672C137.102 49.1813 136.291 48.4667 135.608 47.528C134.926 46.5893 134.595 45.384 134.616 43.912C134.616 42.44 134.99 41.192 135.736 40.168C136.504 39.1227 137.539 38.3333 138.84 37.8C140.163 37.2667 141.646 37 143.288 37C146.062 37 148.259 37.64 149.88 38.92C151.523 40.2 152.387 42.0027 152.472 44.328H144.824C144.803 43.688 144.643 43.2293 144.344 42.952C144.046 42.6747 143.683 42.536 143.256 42.536C142.958 42.536 142.712 42.6427 142.52 42.856C142.328 43.048 142.232 43.3253 142.232 43.688C142.232 44.2 142.51 44.6267 143.064 44.968C143.64 45.288 144.547 45.6827 145.784 46.152C147.214 46.6853 148.387 47.1973 149.304 47.688C150.243 48.1787 151.054 48.8613 151.736 49.736C152.419 50.6107 152.76 51.7093 152.76 53.032C152.76 54.4187 152.419 55.6667 151.736 56.776C151.054 57.864 150.062 58.7173 148.76 59.336C147.459 59.9547 145.912 60.264 144.12 60.264Z" stroke="#2E2E2E" stroke-width="2" mask="url(#path-1-outside-1_7_439)"/>
<path d="M173.048 37.384V43.016H167.032V60.04H159.928V43.016H153.976V37.384H173.048Z" stroke="#2E2E2E" stroke-width="2" mask="url(#path-1-outside-1_7_439)"/>
<path d="M189.503 56.616H181.951L180.831 60.04H173.375L181.663 37.384H189.855L198.111 60.04H190.623L189.503 56.616ZM187.775 51.272L185.727 44.968L183.679 51.272H187.775Z" stroke="#2E2E2E" stroke-width="2" mask="url(#path-1-outside-1_7_439)"/>
<path d="M217.517 37.384V43.016H211.501V60.04H204.397V43.016H198.445V37.384H217.517Z" stroke="#2E2E2E" stroke-width="2" mask="url(#path-1-outside-1_7_439)"/>
<path d="M226.548 43.048V45.832H233.588V51.176H226.548V54.376H234.548V60.04H219.444V37.384H234.548V43.048H226.548Z" stroke="#2E2E2E" stroke-width="2" mask="url(#path-1-outside-1_7_439)"/>
<path d="M246.089 60.264C243.38 60.264 241.14 59.6347 239.369 58.376C237.62 57.096 236.67 55.2293 236.521 52.776H244.073C244.18 54.0773 244.756 54.728 245.801 54.728C246.185 54.728 246.505 54.6427 246.761 54.472C247.038 54.28 247.177 53.992 247.177 53.608C247.177 53.0747 246.889 52.648 246.313 52.328C245.737 51.9867 244.841 51.6027 243.625 51.176C242.174 50.664 240.969 50.1627 240.009 49.672C239.07 49.1813 238.26 48.4667 237.577 47.528C236.894 46.5893 236.564 45.384 236.585 43.912C236.585 42.44 236.958 41.192 237.705 40.168C238.473 39.1227 239.508 38.3333 240.809 37.8C242.132 37.2667 243.614 37 245.257 37C248.03 37 250.228 37.64 251.849 38.92C253.492 40.2 254.356 42.0027 254.441 44.328H246.793C246.772 43.688 246.612 43.2293 246.313 42.952C246.014 42.6747 245.652 42.536 245.225 42.536C244.926 42.536 244.681 42.6427 244.489 42.856C244.297 43.048 244.201 43.3253 244.201 43.688C244.201 44.2 244.478 44.6267 245.033 44.968C245.609 45.288 246.516 45.6827 247.753 46.152C249.182 46.6853 250.356 47.1973 251.273 47.688C252.212 48.1787 253.022 48.8613 253.705 49.736C254.388 50.6107 254.729 51.7093 254.729 53.032C254.729 54.4187 254.388 55.6667 253.705 56.776C253.022 57.864 252.03 58.7173 250.729 59.336C249.428 59.9547 247.881 60.264 246.089 60.264Z" stroke="#2E2E2E" stroke-width="2" mask="url(#path-1-outside-1_7_439)"/>
<mask id="path-2-outside-2_7_439" maskUnits="userSpaceOnUse" x="3" y="2" width="250" height="58" fill="black">
<rect fill="white" x="3" y="2" width="250" height="58"/>
<path d="M54.5213 3.384L49.3372 26.04H40.5052L37.8812 13.176L35.2573 26.04H26.4253L21.2412 3.384H28.8893L30.9373 17.656L34.0093 3.384H41.7533L44.8252 17.656L46.8733 3.384H54.5213Z"/>
<path d="M64.1728 9.048V11.832H71.2128V17.176H64.1728V20.376H72.1728V26.04H57.0687V3.384H72.1728V9.048H64.1728Z"/>
<path d="M81.954 20.664H88.802V26.04H74.85V3.384H81.954V20.664Z"/>
<path d="M90.3975 14.68C90.3975 12.44 90.8455 10.4453 91.7415 8.696C92.6588 6.94667 93.9602 5.592 95.6455 4.632C97.3308 3.65067 99.3148 3.16 101.598 3.16C103.56 3.16 105.31 3.53333 106.846 4.28C108.403 5.00533 109.662 6.04 110.622 7.384C111.603 8.728 112.254 10.296 112.574 12.088H105.086C104.744 11.3413 104.254 10.7653 103.614 10.36C102.995 9.93333 102.28 9.72 101.469 9.72C100.275 9.72 99.3255 10.168 98.6215 11.064C97.9388 11.96 97.5975 13.1653 97.5975 14.68C97.5975 16.1947 97.9388 17.4 98.6215 18.296C99.3255 19.192 100.275 19.64 101.469 19.64C102.28 19.64 102.995 19.4373 103.614 19.032C104.254 18.6053 104.744 18.0187 105.086 17.272H112.574C112.254 19.064 111.603 20.632 110.622 21.976C109.662 23.32 108.403 24.3653 106.846 25.112C105.31 25.8373 103.56 26.2 101.598 26.2C99.3148 26.2 97.3308 25.72 95.6455 24.76C93.9602 23.7787 92.6588 22.4133 91.7415 20.664C90.8455 18.9147 90.3975 16.92 90.3975 14.68Z"/>
<path d="M126.171 26.264C124.038 26.264 122.075 25.7627 120.283 24.76C118.513 23.7573 117.105 22.3707 116.059 20.6C115.014 18.8293 114.491 16.8347 114.491 14.616C114.491 12.3973 115.014 10.4027 116.059 8.632C117.105 6.86133 118.513 5.48533 120.283 4.504C122.075 3.50133 124.038 3 126.171 3C128.305 3 130.257 3.50133 132.027 4.504C133.798 5.48533 135.195 6.86133 136.219 8.632C137.265 10.4027 137.787 12.3973 137.787 14.616C137.787 16.8347 137.265 18.8293 136.219 20.6C135.195 22.3707 133.787 23.7573 131.995 24.76C130.225 25.7627 128.283 26.264 126.171 26.264ZM126.171 19.64C127.579 19.64 128.667 19.192 129.435 18.296C130.203 17.3787 130.587 16.152 130.587 14.616C130.587 13.0587 130.203 11.832 129.435 10.936C128.667 10.0187 127.579 9.56 126.171 9.56C124.742 9.56 123.643 10.0187 122.875 10.936C122.107 11.832 121.723 13.0587 121.723 14.616C121.723 16.152 122.107 17.3787 122.875 18.296C123.643 19.192 124.742 19.64 126.171 19.64Z"/>
<path d="M167.582 3.384V26.04H160.51V14.744L157.022 26.04H150.942L147.454 14.744V26.04H140.35V3.384H149.054L154.046 16.984L158.91 3.384H167.582Z"/>
<path d="M177.891 9.048V11.832H184.932V17.176H177.891V20.376H185.891V26.04H170.788V3.384H185.891V9.048H177.891Z"/>
<path d="M211.798 3.384V9.016H205.782V26.04H198.678V9.016H192.726V3.384H211.798Z"/>
<path d="M224.765 26.264C222.632 26.264 220.669 25.7627 218.877 24.76C217.106 23.7573 215.698 22.3707 214.653 20.6C213.608 18.8293 213.085 16.8347 213.085 14.616C213.085 12.3973 213.608 10.4027 214.653 8.632C215.698 6.86133 217.106 5.48533 218.877 4.504C220.669 3.50133 222.632 3 224.765 3C226.898 3 228.85 3.50133 230.621 4.504C232.392 5.48533 233.789 6.86133 234.813 8.632C235.858 10.4027 236.381 12.3973 236.381 14.616C236.381 16.8347 235.858 18.8293 234.813 20.6C233.789 22.3707 232.381 23.7573 230.589 24.76C228.818 25.7627 226.877 26.264 224.765 26.264ZM224.765 19.64C226.173 19.64 227.261 19.192 228.029 18.296C228.797 17.3787 229.181 16.152 229.181 14.616C229.181 13.0587 228.797 11.832 228.029 10.936C227.261 10.0187 226.173 9.56 224.765 9.56C223.336 9.56 222.237 10.0187 221.469 10.936C220.701 11.832 220.317 13.0587 220.317 14.616C220.317 16.152 220.701 17.3787 221.469 18.296C222.237 19.192 223.336 19.64 224.765 19.64Z"/>
<path d="M21.128 54.616H13.576L12.456 58.04H5L13.288 35.384H21.48L29.736 58.04H22.248L21.128 54.616ZM19.4 49.272L17.352 42.968L15.304 49.272H19.4Z"/>
<path d="M45.238 43.128C44.9607 42.68 44.566 42.3387 44.054 42.104C43.542 41.848 42.9233 41.72 42.198 41.72C40.8327 41.72 39.7767 42.168 39.03 43.064C38.2833 43.9387 37.91 45.144 37.91 46.68C37.91 48.4507 38.326 49.7733 39.158 50.648C39.99 51.5227 41.27 51.96 42.998 51.96C44.6407 51.96 45.9633 51.2987 46.966 49.976H41.302V44.952H52.854V52.056C51.8727 53.7413 50.518 55.192 48.79 56.408C47.062 57.6027 44.8753 58.2 42.23 58.2C39.8833 58.2 37.8353 57.72 36.086 56.76C34.358 55.7787 33.0247 54.4133 32.086 52.664C31.1687 50.9147 30.71 48.92 30.71 46.68C30.71 44.44 31.1687 42.4453 32.086 40.696C33.0247 38.9467 34.358 37.592 36.086 36.632C37.814 35.6507 39.8407 35.16 42.166 35.16C45.1313 35.16 47.542 35.8747 49.398 37.304C51.2753 38.7333 52.3847 40.6747 52.726 43.128H45.238Z"/>
<path d="M66.4525 58.264C64.3192 58.264 62.3565 57.7627 60.5645 56.76C58.7938 55.7573 57.3858 54.3707 56.3405 52.6C55.2952 50.8293 54.7725 48.8347 54.7725 46.616C54.7725 44.3973 55.2952 42.4027 56.3405 40.632C57.3858 38.8613 58.7938 37.4853 60.5645 36.504C62.3565 35.5013 64.3192 35 66.4525 35C68.5858 35 70.5378 35.5013 72.3085 36.504C74.0792 37.4853 75.4765 38.8613 76.5005 40.632C77.5458 42.4027 78.0685 44.3973 78.0685 46.616C78.0685 48.8347 77.5458 50.8293 76.5005 52.6C75.4765 54.3707 74.0685 55.7573 72.2765 56.76C70.5058 57.7627 68.5645 58.264 66.4525 58.264ZM66.4525 51.64C67.8605 51.64 68.9485 51.192 69.7165 50.296C70.4845 49.3787 70.8685 48.152 70.8685 46.616C70.8685 45.0587 70.4845 43.832 69.7165 42.936C68.9485 42.0187 67.8605 41.56 66.4525 41.56C65.0232 41.56 63.9245 42.0187 63.1565 42.936C62.3885 43.832 62.0045 45.0587 62.0045 46.616C62.0045 48.152 62.3885 49.3787 63.1565 50.296C63.9245 51.192 65.0232 51.64 66.4525 51.64Z"/>
<path d="M92.0233 58.04L87.7673 49.912H87.7353V58.04H80.6312V35.384H91.1913C93.0259 35.384 94.5939 35.7147 95.8952 36.376C97.1966 37.016 98.1673 37.9013 98.8073 39.032C99.4686 40.1413 99.7993 41.4 99.7993 42.808C99.7993 44.3227 99.3726 45.6667 98.5192 46.84C97.6872 48.0133 96.4819 48.856 94.9033 49.368L99.8313 58.04H92.0233ZM87.7353 45.176H90.5513C91.2339 45.176 91.7459 45.0267 92.0872 44.728C92.4286 44.408 92.5993 43.9173 92.5993 43.256C92.5993 42.6587 92.4179 42.1893 92.0553 41.848C91.7139 41.5067 91.2126 41.336 90.5513 41.336H87.7353V45.176Z"/>
<path d="M116.597 54.616H109.045L107.925 58.04H100.469L108.757 35.384H116.949L125.205 58.04H117.717L116.597 54.616ZM114.869 49.272L112.821 42.968L110.773 49.272H114.869Z"/>
<path d="M141.12 58.264C138.411 58.264 136.171 57.6347 134.4 56.376C132.651 55.096 131.702 53.2293 131.552 50.776H139.104C139.211 52.0773 139.787 52.728 140.832 52.728C141.216 52.728 141.536 52.6427 141.792 52.472C142.07 52.28 142.208 51.992 142.208 51.608C142.208 51.0747 141.92 50.648 141.344 50.328C140.768 49.9867 139.872 49.6027 138.656 49.176C137.206 48.664 136 48.1627 135.04 47.672C134.102 47.1813 133.291 46.4667 132.608 45.528C131.926 44.5893 131.595 43.384 131.616 41.912C131.616 40.44 131.99 39.192 132.736 38.168C133.504 37.1227 134.539 36.3333 135.84 35.8C137.163 35.2667 138.646 35 140.288 35C143.062 35 145.259 35.64 146.88 36.92C148.523 38.2 149.387 40.0027 149.472 42.328H141.824C141.803 41.688 141.643 41.2293 141.344 40.952C141.046 40.6747 140.683 40.536 140.256 40.536C139.958 40.536 139.712 40.6427 139.52 40.856C139.328 41.048 139.232 41.3253 139.232 41.688C139.232 42.2 139.51 42.6267 140.064 42.968C140.64 43.288 141.547 43.6827 142.784 44.152C144.214 44.6853 145.387 45.1973 146.304 45.688C147.243 46.1787 148.054 46.8613 148.736 47.736C149.419 48.6107 149.76 49.7093 149.76 51.032C149.76 52.4187 149.419 53.6667 148.736 54.776C148.054 55.864 147.062 56.7173 145.76 57.336C144.459 57.9547 142.912 58.264 141.12 58.264Z"/>
<path d="M170.048 35.384V41.016H164.032V58.04H156.928V41.016H150.976V35.384H170.048Z"/>
<path d="M186.503 54.616H178.951L177.831 58.04H170.375L178.663 35.384H186.855L195.111 58.04H187.623L186.503 54.616ZM184.775 49.272L182.727 42.968L180.679 49.272H184.775Z"/>
<path d="M214.517 35.384V41.016H208.501V58.04H201.397V41.016H195.445V35.384H214.517Z"/>
<path d="M223.548 41.048V43.832H230.588V49.176H223.548V52.376H231.548V58.04H216.444V35.384H231.548V41.048H223.548Z"/>
<path d="M243.089 58.264C240.38 58.264 238.14 57.6347 236.369 56.376C234.62 55.096 233.67 53.2293 233.521 50.776H241.073C241.18 52.0773 241.756 52.728 242.801 52.728C243.185 52.728 243.505 52.6427 243.761 52.472C244.038 52.28 244.177 51.992 244.177 51.608C244.177 51.0747 243.889 50.648 243.313 50.328C242.737 49.9867 241.841 49.6027 240.625 49.176C239.174 48.664 237.969 48.1627 237.009 47.672C236.07 47.1813 235.26 46.4667 234.577 45.528C233.894 44.5893 233.564 43.384 233.585 41.912C233.585 40.44 233.958 39.192 234.705 38.168C235.473 37.1227 236.508 36.3333 237.809 35.8C239.132 35.2667 240.614 35 242.257 35C245.03 35 247.228 35.64 248.849 36.92C250.492 38.2 251.356 40.0027 251.441 42.328H243.793C243.772 41.688 243.612 41.2293 243.313 40.952C243.014 40.6747 242.652 40.536 242.225 40.536C241.926 40.536 241.681 40.6427 241.489 40.856C241.297 41.048 241.201 41.3253 241.201 41.688C241.201 42.2 241.478 42.6267 242.033 42.968C242.609 43.288 243.516 43.6827 244.753 44.152C246.182 44.6853 247.356 45.1973 248.273 45.688C249.212 46.1787 250.022 46.8613 250.705 47.736C251.388 48.6107 251.729 49.7093 251.729 51.032C251.729 52.4187 251.388 53.6667 250.705 54.776C250.022 55.864 249.03 56.7173 247.729 57.336C246.428 57.9547 244.881 58.264 243.089 58.264Z"/>
</mask>
<path d="M54.5213 3.384L49.3372 26.04H40.5052L37.8812 13.176L35.2573 26.04H26.4253L21.2412 3.384H28.8893L30.9373 17.656L34.0093 3.384H41.7533L44.8252 17.656L46.8733 3.384H54.5213Z" fill="#2EA4D5"/>
<path d="M64.1728 9.048V11.832H71.2128V17.176H64.1728V20.376H72.1728V26.04H57.0687V3.384H72.1728V9.048H64.1728Z" fill="#2EA4D5"/>
<path d="M81.954 20.664H88.802V26.04H74.85V3.384H81.954V20.664Z" fill="#2EA4D5"/>
<path d="M90.3975 14.68C90.3975 12.44 90.8455 10.4453 91.7415 8.696C92.6588 6.94667 93.9602 5.592 95.6455 4.632C97.3308 3.65067 99.3148 3.16 101.598 3.16C103.56 3.16 105.31 3.53333 106.846 4.28C108.403 5.00533 109.662 6.04 110.622 7.384C111.603 8.728 112.254 10.296 112.574 12.088H105.086C104.744 11.3413 104.254 10.7653 103.614 10.36C102.995 9.93333 102.28 9.72 101.469 9.72C100.275 9.72 99.3255 10.168 98.6215 11.064C97.9388 11.96 97.5975 13.1653 97.5975 14.68C97.5975 16.1947 97.9388 17.4 98.6215 18.296C99.3255 19.192 100.275 19.64 101.469 19.64C102.28 19.64 102.995 19.4373 103.614 19.032C104.254 18.6053 104.744 18.0187 105.086 17.272H112.574C112.254 19.064 111.603 20.632 110.622 21.976C109.662 23.32 108.403 24.3653 106.846 25.112C105.31 25.8373 103.56 26.2 101.598 26.2C99.3148 26.2 97.3308 25.72 95.6455 24.76C93.9602 23.7787 92.6588 22.4133 91.7415 20.664C90.8455 18.9147 90.3975 16.92 90.3975 14.68Z" fill="#2EA4D5"/>
<path d="M126.171 26.264C124.038 26.264 122.075 25.7627 120.283 24.76C118.513 23.7573 117.105 22.3707 116.059 20.6C115.014 18.8293 114.491 16.8347 114.491 14.616C114.491 12.3973 115.014 10.4027 116.059 8.632C117.105 6.86133 118.513 5.48533 120.283 4.504C122.075 3.50133 124.038 3 126.171 3C128.305 3 130.257 3.50133 132.027 4.504C133.798 5.48533 135.195 6.86133 136.219 8.632C137.265 10.4027 137.787 12.3973 137.787 14.616C137.787 16.8347 137.265 18.8293 136.219 20.6C135.195 22.3707 133.787 23.7573 131.995 24.76C130.225 25.7627 128.283 26.264 126.171 26.264ZM126.171 19.64C127.579 19.64 128.667 19.192 129.435 18.296C130.203 17.3787 130.587 16.152 130.587 14.616C130.587 13.0587 130.203 11.832 129.435 10.936C128.667 10.0187 127.579 9.56 126.171 9.56C124.742 9.56 123.643 10.0187 122.875 10.936C122.107 11.832 121.723 13.0587 121.723 14.616C121.723 16.152 122.107 17.3787 122.875 18.296C123.643 19.192 124.742 19.64 126.171 19.64Z" fill="#2EA4D5"/>
<path d="M167.582 3.384V26.04H160.51V14.744L157.022 26.04H150.942L147.454 14.744V26.04H140.35V3.384H149.054L154.046 16.984L158.91 3.384H167.582Z" fill="#2EA4D5"/>
<path d="M177.891 9.048V11.832H184.932V17.176H177.891V20.376H185.891V26.04H170.788V3.384H185.891V9.048H177.891Z" fill="#2EA4D5"/>
<path d="M211.798 3.384V9.016H205.782V26.04H198.678V9.016H192.726V3.384H211.798Z" fill="#2EA4D5"/>
<path d="M224.765 26.264C222.632 26.264 220.669 25.7627 218.877 24.76C217.106 23.7573 215.698 22.3707 214.653 20.6C213.608 18.8293 213.085 16.8347 213.085 14.616C213.085 12.3973 213.608 10.4027 214.653 8.632C215.698 6.86133 217.106 5.48533 218.877 4.504C220.669 3.50133 222.632 3 224.765 3C226.898 3 228.85 3.50133 230.621 4.504C232.392 5.48533 233.789 6.86133 234.813 8.632C235.858 10.4027 236.381 12.3973 236.381 14.616C236.381 16.8347 235.858 18.8293 234.813 20.6C233.789 22.3707 232.381 23.7573 230.589 24.76C228.818 25.7627 226.877 26.264 224.765 26.264ZM224.765 19.64C226.173 19.64 227.261 19.192 228.029 18.296C228.797 17.3787 229.181 16.152 229.181 14.616C229.181 13.0587 228.797 11.832 228.029 10.936C227.261 10.0187 226.173 9.56 224.765 9.56C223.336 9.56 222.237 10.0187 221.469 10.936C220.701 11.832 220.317 13.0587 220.317 14.616C220.317 16.152 220.701 17.3787 221.469 18.296C222.237 19.192 223.336 19.64 224.765 19.64Z" fill="#2EA4D5"/>
<path d="M21.128 54.616H13.576L12.456 58.04H5L13.288 35.384H21.48L29.736 58.04H22.248L21.128 54.616ZM19.4 49.272L17.352 42.968L15.304 49.272H19.4Z" fill="#2EA4D5"/>
<path d="M45.238 43.128C44.9607 42.68 44.566 42.3387 44.054 42.104C43.542 41.848 42.9233 41.72 42.198 41.72C40.8327 41.72 39.7767 42.168 39.03 43.064C38.2833 43.9387 37.91 45.144 37.91 46.68C37.91 48.4507 38.326 49.7733 39.158 50.648C39.99 51.5227 41.27 51.96 42.998 51.96C44.6407 51.96 45.9633 51.2987 46.966 49.976H41.302V44.952H52.854V52.056C51.8727 53.7413 50.518 55.192 48.79 56.408C47.062 57.6027 44.8753 58.2 42.23 58.2C39.8833 58.2 37.8353 57.72 36.086 56.76C34.358 55.7787 33.0247 54.4133 32.086 52.664C31.1687 50.9147 30.71 48.92 30.71 46.68C30.71 44.44 31.1687 42.4453 32.086 40.696C33.0247 38.9467 34.358 37.592 36.086 36.632C37.814 35.6507 39.8407 35.16 42.166 35.16C45.1313 35.16 47.542 35.8747 49.398 37.304C51.2753 38.7333 52.3847 40.6747 52.726 43.128H45.238Z" fill="#2EA4D5"/>
<path d="M66.4525 58.264C64.3192 58.264 62.3565 57.7627 60.5645 56.76C58.7938 55.7573 57.3858 54.3707 56.3405 52.6C55.2952 50.8293 54.7725 48.8347 54.7725 46.616C54.7725 44.3973 55.2952 42.4027 56.3405 40.632C57.3858 38.8613 58.7938 37.4853 60.5645 36.504C62.3565 35.5013 64.3192 35 66.4525 35C68.5858 35 70.5378 35.5013 72.3085 36.504C74.0792 37.4853 75.4765 38.8613 76.5005 40.632C77.5458 42.4027 78.0685 44.3973 78.0685 46.616C78.0685 48.8347 77.5458 50.8293 76.5005 52.6C75.4765 54.3707 74.0685 55.7573 72.2765 56.76C70.5058 57.7627 68.5645 58.264 66.4525 58.264ZM66.4525 51.64C67.8605 51.64 68.9485 51.192 69.7165 50.296C70.4845 49.3787 70.8685 48.152 70.8685 46.616C70.8685 45.0587 70.4845 43.832 69.7165 42.936C68.9485 42.0187 67.8605 41.56 66.4525 41.56C65.0232 41.56 63.9245 42.0187 63.1565 42.936C62.3885 43.832 62.0045 45.0587 62.0045 46.616C62.0045 48.152 62.3885 49.3787 63.1565 50.296C63.9245 51.192 65.0232 51.64 66.4525 51.64Z" fill="#2EA4D5"/>
<path d="M92.0233 58.04L87.7673 49.912H87.7353V58.04H80.6312V35.384H91.1913C93.0259 35.384 94.5939 35.7147 95.8952 36.376C97.1966 37.016 98.1673 37.9013 98.8073 39.032C99.4686 40.1413 99.7993 41.4 99.7993 42.808C99.7993 44.3227 99.3726 45.6667 98.5192 46.84C97.6872 48.0133 96.4819 48.856 94.9033 49.368L99.8313 58.04H92.0233ZM87.7353 45.176H90.5513C91.2339 45.176 91.7459 45.0267 92.0872 44.728C92.4286 44.408 92.5993 43.9173 92.5993 43.256C92.5993 42.6587 92.4179 42.1893 92.0553 41.848C91.7139 41.5067 91.2126 41.336 90.5513 41.336H87.7353V45.176Z" fill="#2EA4D5"/>
<path d="M116.597 54.616H109.045L107.925 58.04H100.469L108.757 35.384H116.949L125.205 58.04H117.717L116.597 54.616ZM114.869 49.272L112.821 42.968L110.773 49.272H114.869Z" fill="#2EA4D5"/>
<path d="M141.12 58.264C138.411 58.264 136.171 57.6347 134.4 56.376C132.651 55.096 131.702 53.2293 131.552 50.776H139.104C139.211 52.0773 139.787 52.728 140.832 52.728C141.216 52.728 141.536 52.6427 141.792 52.472C142.07 52.28 142.208 51.992 142.208 51.608C142.208 51.0747 141.92 50.648 141.344 50.328C140.768 49.9867 139.872 49.6027 138.656 49.176C137.206 48.664 136 48.1627 135.04 47.672C134.102 47.1813 133.291 46.4667 132.608 45.528C131.926 44.5893 131.595 43.384 131.616 41.912C131.616 40.44 131.99 39.192 132.736 38.168C133.504 37.1227 134.539 36.3333 135.84 35.8C137.163 35.2667 138.646 35 140.288 35C143.062 35 145.259 35.64 146.88 36.92C148.523 38.2 149.387 40.0027 149.472 42.328H141.824C141.803 41.688 141.643 41.2293 141.344 40.952C141.046 40.6747 140.683 40.536 140.256 40.536C139.958 40.536 139.712 40.6427 139.52 40.856C139.328 41.048 139.232 41.3253 139.232 41.688C139.232 42.2 139.51 42.6267 140.064 42.968C140.64 43.288 141.547 43.6827 142.784 44.152C144.214 44.6853 145.387 45.1973 146.304 45.688C147.243 46.1787 148.054 46.8613 148.736 47.736C149.419 48.6107 149.76 49.7093 149.76 51.032C149.76 52.4187 149.419 53.6667 148.736 54.776C148.054 55.864 147.062 56.7173 145.76 57.336C144.459 57.9547 142.912 58.264 141.12 58.264Z" fill="#2EA4D5"/>
<path d="M170.048 35.384V41.016H164.032V58.04H156.928V41.016H150.976V35.384H170.048Z" fill="#2EA4D5"/>
<path d="M186.503 54.616H178.951L177.831 58.04H170.375L178.663 35.384H186.855L195.111 58.04H187.623L186.503 54.616ZM184.775 49.272L182.727 42.968L180.679 49.272H184.775Z" fill="#2EA4D5"/>
<path d="M214.517 35.384V41.016H208.501V58.04H201.397V41.016H195.445V35.384H214.517Z" fill="#2EA4D5"/>
<path d="M223.548 41.048V43.832H230.588V49.176H223.548V52.376H231.548V58.04H216.444V35.384H231.548V41.048H223.548Z" fill="#2EA4D5"/>
<path d="M243.089 58.264C240.38 58.264 238.14 57.6347 236.369 56.376C234.62 55.096 233.67 53.2293 233.521 50.776H241.073C241.18 52.0773 241.756 52.728 242.801 52.728C243.185 52.728 243.505 52.6427 243.761 52.472C244.038 52.28 244.177 51.992 244.177 51.608C244.177 51.0747 243.889 50.648 243.313 50.328C242.737 49.9867 241.841 49.6027 240.625 49.176C239.174 48.664 237.969 48.1627 237.009 47.672C236.07 47.1813 235.26 46.4667 234.577 45.528C233.894 44.5893 233.564 43.384 233.585 41.912C233.585 40.44 233.958 39.192 234.705 38.168C235.473 37.1227 236.508 36.3333 237.809 35.8C239.132 35.2667 240.614 35 242.257 35C245.03 35 247.228 35.64 248.849 36.92C250.492 38.2 251.356 40.0027 251.441 42.328H243.793C243.772 41.688 243.612 41.2293 243.313 40.952C243.014 40.6747 242.652 40.536 242.225 40.536C241.926 40.536 241.681 40.6427 241.489 40.856C241.297 41.048 241.201 41.3253 241.201 41.688C241.201 42.2 241.478 42.6267 242.033 42.968C242.609 43.288 243.516 43.6827 244.753 44.152C246.182 44.6853 247.356 45.1973 248.273 45.688C249.212 46.1787 250.022 46.8613 250.705 47.736C251.388 48.6107 251.729 49.7093 251.729 51.032C251.729 52.4187 251.388 53.6667 250.705 54.776C250.022 55.864 249.03 56.7173 247.729 57.336C246.428 57.9547 244.881 58.264 243.089 58.264Z" fill="#2EA4D5"/>
<path d="M54.5213 3.384L49.3372 26.04H40.5052L37.8812 13.176L35.2573 26.04H26.4253L21.2412 3.384H28.8893L30.9373 17.656L34.0093 3.384H41.7533L44.8252 17.656L46.8733 3.384H54.5213Z" stroke="#2E2E2E" stroke-width="2" mask="url(#path-2-outside-2_7_439)"/>
<path d="M64.1728 9.048V11.832H71.2128V17.176H64.1728V20.376H72.1728V26.04H57.0687V3.384H72.1728V9.048H64.1728Z" stroke="#2E2E2E" stroke-width="2" mask="url(#path-2-outside-2_7_439)"/>
<path d="M81.954 20.664H88.802V26.04H74.85V3.384H81.954V20.664Z" stroke="#2E2E2E" stroke-width="2" mask="url(#path-2-outside-2_7_439)"/>
<path d="M90.3975 14.68C90.3975 12.44 90.8455 10.4453 91.7415 8.696C92.6588 6.94667 93.9602 5.592 95.6455 4.632C97.3308 3.65067 99.3148 3.16 101.598 3.16C103.56 3.16 105.31 3.53333 106.846 4.28C108.403 5.00533 109.662 6.04 110.622 7.384C111.603 8.728 112.254 10.296 112.574 12.088H105.086C104.744 11.3413 104.254 10.7653 103.614 10.36C102.995 9.93333 102.28 9.72 101.469 9.72C100.275 9.72 99.3255 10.168 98.6215 11.064C97.9388 11.96 97.5975 13.1653 97.5975 14.68C97.5975 16.1947 97.9388 17.4 98.6215 18.296C99.3255 19.192 100.275 19.64 101.469 19.64C102.28 19.64 102.995 19.4373 103.614 19.032C104.254 18.6053 104.744 18.0187 105.086 17.272H112.574C112.254 19.064 111.603 20.632 110.622 21.976C109.662 23.32 108.403 24.3653 106.846 25.112C105.31 25.8373 103.56 26.2 101.598 26.2C99.3148 26.2 97.3308 25.72 95.6455 24.76C93.9602 23.7787 92.6588 22.4133 91.7415 20.664C90.8455 18.9147 90.3975 16.92 90.3975 14.68Z" stroke="#2E2E2E" stroke-width="2" mask="url(#path-2-outside-2_7_439)"/>
<path d="M126.171 26.264C124.038 26.264 122.075 25.7627 120.283 24.76C118.513 23.7573 117.105 22.3707 116.059 20.6C115.014 18.8293 114.491 16.8347 114.491 14.616C114.491 12.3973 115.014 10.4027 116.059 8.632C117.105 6.86133 118.513 5.48533 120.283 4.504C122.075 3.50133 124.038 3 126.171 3C128.305 3 130.257 3.50133 132.027 4.504C133.798 5.48533 135.195 6.86133 136.219 8.632C137.265 10.4027 137.787 12.3973 137.787 14.616C137.787 16.8347 137.265 18.8293 136.219 20.6C135.195 22.3707 133.787 23.7573 131.995 24.76C130.225 25.7627 128.283 26.264 126.171 26.264ZM126.171 19.64C127.579 19.64 128.667 19.192 129.435 18.296C130.203 17.3787 130.587 16.152 130.587 14.616C130.587 13.0587 130.203 11.832 129.435 10.936C128.667 10.0187 127.579 9.56 126.171 9.56C124.742 9.56 123.643 10.0187 122.875 10.936C122.107 11.832 121.723 13.0587 121.723 14.616C121.723 16.152 122.107 17.3787 122.875 18.296C123.643 19.192 124.742 19.64 126.171 19.64Z" stroke="#2E2E2E" stroke-width="2" mask="url(#path-2-outside-2_7_439)"/>
<path d="M167.582 3.384V26.04H160.51V14.744L157.022 26.04H150.942L147.454 14.744V26.04H140.35V3.384H149.054L154.046 16.984L158.91 3.384H167.582Z" stroke="#2E2E2E" stroke-width="2" mask="url(#path-2-outside-2_7_439)"/>
<path d="M177.891 9.048V11.832H184.932V17.176H177.891V20.376H185.891V26.04H170.788V3.384H185.891V9.048H177.891Z" stroke="#2E2E2E" stroke-width="2" mask="url(#path-2-outside-2_7_439)"/>
<path d="M211.798 3.384V9.016H205.782V26.04H198.678V9.016H192.726V3.384H211.798Z" stroke="#2E2E2E" stroke-width="2" mask="url(#path-2-outside-2_7_439)"/>
<path d="M224.765 26.264C222.632 26.264 220.669 25.7627 218.877 24.76C217.106 23.7573 215.698 22.3707 214.653 20.6C213.608 18.8293 213.085 16.8347 213.085 14.616C213.085 12.3973 213.608 10.4027 214.653 8.632C215.698 6.86133 217.106 5.48533 218.877 4.504C220.669 3.50133 222.632 3 224.765 3C226.898 3 228.85 3.50133 230.621 4.504C232.392 5.48533 233.789 6.86133 234.813 8.632C235.858 10.4027 236.381 12.3973 236.381 14.616C236.381 16.8347 235.858 18.8293 234.813 20.6C233.789 22.3707 232.381 23.7573 230.589 24.76C228.818 25.7627 226.877 26.264 224.765 26.264ZM224.765 19.64C226.173 19.64 227.261 19.192 228.029 18.296C228.797 17.3787 229.181 16.152 229.181 14.616C229.181 13.0587 228.797 11.832 228.029 10.936C227.261 10.0187 226.173 9.56 224.765 9.56C223.336 9.56 222.237 10.0187 221.469 10.936C220.701 11.832 220.317 13.0587 220.317 14.616C220.317 16.152 220.701 17.3787 221.469 18.296C222.237 19.192 223.336 19.64 224.765 19.64Z" stroke="#2E2E2E" stroke-width="2" mask="url(#path-2-outside-2_7_439)"/>
<path d="M21.128 54.616H13.576L12.456 58.04H5L13.288 35.384H21.48L29.736 58.04H22.248L21.128 54.616ZM19.4 49.272L17.352 42.968L15.304 49.272H19.4Z" stroke="#2E2E2E" stroke-width="2" mask="url(#path-2-outside-2_7_439)"/>
<path d="M45.238 43.128C44.9607 42.68 44.566 42.3387 44.054 42.104C43.542 41.848 42.9233 41.72 42.198 41.72C40.8327 41.72 39.7767 42.168 39.03 43.064C38.2833 43.9387 37.91 45.144 37.91 46.68C37.91 48.4507 38.326 49.7733 39.158 50.648C39.99 51.5227 41.27 51.96 42.998 51.96C44.6407 51.96 45.9633 51.2987 46.966 49.976H41.302V44.952H52.854V52.056C51.8727 53.7413 50.518 55.192 48.79 56.408C47.062 57.6027 44.8753 58.2 42.23 58.2C39.8833 58.2 37.8353 57.72 36.086 56.76C34.358 55.7787 33.0247 54.4133 32.086 52.664C31.1687 50.9147 30.71 48.92 30.71 46.68C30.71 44.44 31.1687 42.4453 32.086 40.696C33.0247 38.9467 34.358 37.592 36.086 36.632C37.814 35.6507 39.8407 35.16 42.166 35.16C45.1313 35.16 47.542 35.8747 49.398 37.304C51.2753 38.7333 52.3847 40.6747 52.726 43.128H45.238Z" stroke="#2E2E2E" stroke-width="2" mask="url(#path-2-outside-2_7_439)"/>
<path d="M66.4525 58.264C64.3192 58.264 62.3565 57.7627 60.5645 56.76C58.7938 55.7573 57.3858 54.3707 56.3405 52.6C55.2952 50.8293 54.7725 48.8347 54.7725 46.616C54.7725 44.3973 55.2952 42.4027 56.3405 40.632C57.3858 38.8613 58.7938 37.4853 60.5645 36.504C62.3565 35.5013 64.3192 35 66.4525 35C68.5858 35 70.5378 35.5013 72.3085 36.504C74.0792 37.4853 75.4765 38.8613 76.5005 40.632C77.5458 42.4027 78.0685 44.3973 78.0685 46.616C78.0685 48.8347 77.5458 50.8293 76.5005 52.6C75.4765 54.3707 74.0685 55.7573 72.2765 56.76C70.5058 57.7627 68.5645 58.264 66.4525 58.264ZM66.4525 51.64C67.8605 51.64 68.9485 51.192 69.7165 50.296C70.4845 49.3787 70.8685 48.152 70.8685 46.616C70.8685 45.0587 70.4845 43.832 69.7165 42.936C68.9485 42.0187 67.8605 41.56 66.4525 41.56C65.0232 41.56 63.9245 42.0187 63.1565 42.936C62.3885 43.832 62.0045 45.0587 62.0045 46.616C62.0045 48.152 62.3885 49.3787 63.1565 50.296C63.9245 51.192 65.0232 51.64 66.4525 51.64Z" stroke="#2E2E2E" stroke-width="2" mask="url(#path-2-outside-2_7_439)"/>
<path d="M92.0233 58.04L87.7673 49.912H87.7353V58.04H80.6312V35.384H91.1913C93.0259 35.384 94.5939 35.7147 95.8952 36.376C97.1966 37.016 98.1673 37.9013 98.8073 39.032C99.4686 40.1413 99.7993 41.4 99.7993 42.808C99.7993 44.3227 99.3726 45.6667 98.5192 46.84C97.6872 48.0133 96.4819 48.856 94.9033 49.368L99.8313 58.04H92.0233ZM87.7353 45.176H90.5513C91.2339 45.176 91.7459 45.0267 92.0872 44.728C92.4286 44.408 92.5993 43.9173 92.5993 43.256C92.5993 42.6587 92.4179 42.1893 92.0553 41.848C91.7139 41.5067 91.2126 41.336 90.5513 41.336H87.7353V45.176Z" stroke="#2E2E2E" stroke-width="2" mask="url(#path-2-outside-2_7_439)"/>
<path d="M116.597 54.616H109.045L107.925 58.04H100.469L108.757 35.384H116.949L125.205 58.04H117.717L116.597 54.616ZM114.869 49.272L112.821 42.968L110.773 49.272H114.869Z" stroke="#2E2E2E" stroke-width="2" mask="url(#path-2-outside-2_7_439)"/>
<path d="M141.12 58.264C138.411 58.264 136.171 57.6347 134.4 56.376C132.651 55.096 131.702 53.2293 131.552 50.776H139.104C139.211 52.0773 139.787 52.728 140.832 52.728C141.216 52.728 141.536 52.6427 141.792 52.472C142.07 52.28 142.208 51.992 142.208 51.608C142.208 51.0747 141.92 50.648 141.344 50.328C140.768 49.9867 139.872 49.6027 138.656 49.176C137.206 48.664 136 48.1627 135.04 47.672C134.102 47.1813 133.291 46.4667 132.608 45.528C131.926 44.5893 131.595 43.384 131.616 41.912C131.616 40.44 131.99 39.192 132.736 38.168C133.504 37.1227 134.539 36.3333 135.84 35.8C137.163 35.2667 138.646 35 140.288 35C143.062 35 145.259 35.64 146.88 36.92C148.523 38.2 149.387 40.0027 149.472 42.328H141.824C141.803 41.688 141.643 41.2293 141.344 40.952C141.046 40.6747 140.683 40.536 140.256 40.536C139.958 40.536 139.712 40.6427 139.52 40.856C139.328 41.048 139.232 41.3253 139.232 41.688C139.232 42.2 139.51 42.6267 140.064 42.968C140.64 43.288 141.547 43.6827 142.784 44.152C144.214 44.6853 145.387 45.1973 146.304 45.688C147.243 46.1787 148.054 46.8613 148.736 47.736C149.419 48.6107 149.76 49.7093 149.76 51.032C149.76 52.4187 149.419 53.6667 148.736 54.776C148.054 55.864 147.062 56.7173 145.76 57.336C144.459 57.9547 142.912 58.264 141.12 58.264Z" stroke="#2E2E2E" stroke-width="2" mask="url(#path-2-outside-2_7_439)"/>
<path d="M170.048 35.384V41.016H164.032V58.04H156.928V41.016H150.976V35.384H170.048Z" stroke="#2E2E2E" stroke-width="2" mask="url(#path-2-outside-2_7_439)"/>
<path d="M186.503 54.616H178.951L177.831 58.04H170.375L178.663 35.384H186.855L195.111 58.04H187.623L186.503 54.616ZM184.775 49.272L182.727 42.968L180.679 49.272H184.775Z" stroke="#2E2E2E" stroke-width="2" mask="url(#path-2-outside-2_7_439)"/>
<path d="M214.517 35.384V41.016H208.501V58.04H201.397V41.016H195.445V35.384H214.517Z" stroke="#2E2E2E" stroke-width="2" mask="url(#path-2-outside-2_7_439)"/>
<path d="M223.548 41.048V43.832H230.588V49.176H223.548V52.376H231.548V58.04H216.444V35.384H231.548V41.048H223.548Z" stroke="#2E2E2E" stroke-width="2" mask="url(#path-2-outside-2_7_439)"/>
<path d="M243.089 58.264C240.38 58.264 238.14 57.6347 236.369 56.376C234.62 55.096 233.67 53.2293 233.521 50.776H241.073C241.18 52.0773 241.756 52.728 242.801 52.728C243.185 52.728 243.505 52.6427 243.761 52.472C244.038 52.28 244.177 51.992 244.177 51.608C244.177 51.0747 243.889 50.648 243.313 50.328C242.737 49.9867 241.841 49.6027 240.625 49.176C239.174 48.664 237.969 48.1627 237.009 47.672C236.07 47.1813 235.26 46.4667 234.577 45.528C233.894 44.5893 233.564 43.384 233.585 41.912C233.585 40.44 233.958 39.192 234.705 38.168C235.473 37.1227 236.508 36.3333 237.809 35.8C239.132 35.2667 240.614 35 242.257 35C245.03 35 247.228 35.64 248.849 36.92C250.492 38.2 251.356 40.0027 251.441 42.328H243.793C243.772 41.688 243.612 41.2293 243.313 40.952C243.014 40.6747 242.652 40.536 242.225 40.536C241.926 40.536 241.681 40.6427 241.489 40.856C241.297 41.048 241.201 41.3253 241.201 41.688C241.201 42.2 241.478 42.6267 242.033 42.968C242.609 43.288 243.516 43.6827 244.753 44.152C246.182 44.6853 247.356 45.1973 248.273 45.688C249.212 46.1787 250.022 46.8613 250.705 47.736C251.388 48.6107 251.729 49.7093 251.729 51.032C251.729 52.4187 251.388 53.6667 250.705 54.776C250.022 55.864 249.03 56.7173 247.729 57.336C246.428 57.9547 244.881 58.264 243.089 58.264Z" stroke="#2E2E2E" stroke-width="2" mask="url(#path-2-outside-2_7_439)"/>
<mask id="path-3-outside-3_7_439" maskUnits="userSpaceOnUse" x="0" y="0" width="250" height="58" fill="black">
<rect fill="white" width="250" height="58"/>
<path d="M51.5213 1.384L46.3372 24.04H37.5052L34.8812 11.176L32.2573 24.04H23.4253L18.2412 1.384H25.8893L27.9373 15.656L31.0093 1.384H38.7533L41.8252 15.656L43.8733 1.384H51.5213Z"/>
<path d="M61.1728 7.048V9.832H68.2128V15.176H61.1728V18.376H69.1728V24.04H54.0687V1.384H69.1728V7.048H61.1728Z"/>
<path d="M78.954 18.664H85.802V24.04H71.85V1.384H78.954V18.664Z"/>
<path d="M87.3975 12.68C87.3975 10.44 87.8455 8.44533 88.7415 6.696C89.6588 4.94667 90.9602 3.592 92.6455 2.632C94.3308 1.65067 96.3148 1.16 98.5975 1.16C100.56 1.16 102.31 1.53333 103.846 2.28C105.403 3.00533 106.662 4.04 107.622 5.384C108.603 6.728 109.254 8.296 109.574 10.088H102.086C101.744 9.34133 101.254 8.76533 100.614 8.36C99.9948 7.93333 99.2802 7.72 98.4695 7.72C97.2748 7.72 96.3255 8.168 95.6215 9.064C94.9388 9.96 94.5975 11.1653 94.5975 12.68C94.5975 14.1947 94.9388 15.4 95.6215 16.296C96.3255 17.192 97.2748 17.64 98.4695 17.64C99.2802 17.64 99.9948 17.4373 100.614 17.032C101.254 16.6053 101.744 16.0187 102.086 15.272H109.574C109.254 17.064 108.603 18.632 107.622 19.976C106.662 21.32 105.403 22.3653 103.846 23.112C102.31 23.8373 100.56 24.2 98.5975 24.2C96.3148 24.2 94.3308 23.72 92.6455 22.76C90.9602 21.7787 89.6588 20.4133 88.7415 18.664C87.8455 16.9147 87.3975 14.92 87.3975 12.68Z"/>
<path d="M123.171 24.264C121.038 24.264 119.075 23.7627 117.283 22.76C115.513 21.7573 114.105 20.3707 113.059 18.6C112.014 16.8293 111.491 14.8347 111.491 12.616C111.491 10.3973 112.014 8.40267 113.059 6.632C114.105 4.86133 115.513 3.48533 117.283 2.504C119.075 1.50133 121.038 1 123.171 1C125.305 1 127.257 1.50133 129.027 2.504C130.798 3.48533 132.195 4.86133 133.219 6.632C134.265 8.40267 134.787 10.3973 134.787 12.616C134.787 14.8347 134.265 16.8293 133.219 18.6C132.195 20.3707 130.787 21.7573 128.995 22.76C127.225 23.7627 125.283 24.264 123.171 24.264ZM123.171 17.64C124.579 17.64 125.667 17.192 126.435 16.296C127.203 15.3787 127.587 14.152 127.587 12.616C127.587 11.0587 127.203 9.832 126.435 8.936C125.667 8.01867 124.579 7.56 123.171 7.56C121.742 7.56 120.643 8.01867 119.875 8.936C119.107 9.832 118.723 11.0587 118.723 12.616C118.723 14.152 119.107 15.3787 119.875 16.296C120.643 17.192 121.742 17.64 123.171 17.64Z"/>
<path d="M164.582 1.384V24.04H157.51V12.744L154.022 24.04H147.942L144.454 12.744V24.04H137.35V1.384H146.054L151.046 14.984L155.91 1.384H164.582Z"/>
<path d="M174.891 7.048V9.832H181.932V15.176H174.891V18.376H182.891V24.04H167.788V1.384H182.891V7.048H174.891Z"/>
<path d="M208.798 1.384V7.016H202.782V24.04H195.678V7.016H189.726V1.384H208.798Z"/>
<path d="M221.765 24.264C219.632 24.264 217.669 23.7627 215.877 22.76C214.106 21.7573 212.698 20.3707 211.653 18.6C210.608 16.8293 210.085 14.8347 210.085 12.616C210.085 10.3973 210.608 8.40267 211.653 6.632C212.698 4.86133 214.106 3.48533 215.877 2.504C217.669 1.50133 219.632 1 221.765 1C223.898 1 225.85 1.50133 227.621 2.504C229.392 3.48533 230.789 4.86133 231.813 6.632C232.858 8.40267 233.381 10.3973 233.381 12.616C233.381 14.8347 232.858 16.8293 231.813 18.6C230.789 20.3707 229.381 21.7573 227.589 22.76C225.818 23.7627 223.877 24.264 221.765 24.264ZM221.765 17.64C223.173 17.64 224.261 17.192 225.029 16.296C225.797 15.3787 226.181 14.152 226.181 12.616C226.181 11.0587 225.797 9.832 225.029 8.936C224.261 8.01867 223.173 7.56 221.765 7.56C220.336 7.56 219.237 8.01867 218.469 8.936C217.701 9.832 217.317 11.0587 217.317 12.616C217.317 14.152 217.701 15.3787 218.469 16.296C219.237 17.192 220.336 17.64 221.765 17.64Z"/>
<path d="M18.128 52.616H10.576L9.456 56.04H2L10.288 33.384H18.48L26.736 56.04H19.248L18.128 52.616ZM16.4 47.272L14.352 40.968L12.304 47.272H16.4Z"/>
<path d="M42.238 41.128C41.9607 40.68 41.566 40.3387 41.054 40.104C40.542 39.848 39.9233 39.72 39.198 39.72C37.8327 39.72 36.7767 40.168 36.03 41.064C35.2833 41.9387 34.91 43.144 34.91 44.68C34.91 46.4507 35.326 47.7733 36.158 48.648C36.99 49.5227 38.27 49.96 39.998 49.96C41.6407 49.96 42.9633 49.2987 43.966 47.976H38.302V42.952H49.854V50.056C48.8727 51.7413 47.518 53.192 45.79 54.408C44.062 55.6027 41.8753 56.2 39.23 56.2C36.8833 56.2 34.8353 55.72 33.086 54.76C31.358 53.7787 30.0247 52.4133 29.086 50.664C28.1687 48.9147 27.71 46.92 27.71 44.68C27.71 42.44 28.1687 40.4453 29.086 38.696C30.0247 36.9467 31.358 35.592 33.086 34.632C34.814 33.6507 36.8407 33.16 39.166 33.16C42.1313 33.16 44.542 33.8747 46.398 35.304C48.2753 36.7333 49.3847 38.6747 49.726 41.128H42.238Z"/>
<path d="M63.4525 56.264C61.3192 56.264 59.3565 55.7627 57.5645 54.76C55.7938 53.7573 54.3858 52.3707 53.3405 50.6C52.2952 48.8293 51.7725 46.8347 51.7725 44.616C51.7725 42.3973 52.2952 40.4027 53.3405 38.632C54.3858 36.8613 55.7938 35.4853 57.5645 34.504C59.3565 33.5013 61.3192 33 63.4525 33C65.5858 33 67.5378 33.5013 69.3085 34.504C71.0792 35.4853 72.4765 36.8613 73.5005 38.632C74.5458 40.4027 75.0685 42.3973 75.0685 44.616C75.0685 46.8347 74.5458 48.8293 73.5005 50.6C72.4765 52.3707 71.0685 53.7573 69.2765 54.76C67.5058 55.7627 65.5645 56.264 63.4525 56.264ZM63.4525 49.64C64.8605 49.64 65.9485 49.192 66.7165 48.296C67.4845 47.3787 67.8685 46.152 67.8685 44.616C67.8685 43.0587 67.4845 41.832 66.7165 40.936C65.9485 40.0187 64.8605 39.56 63.4525 39.56C62.0232 39.56 60.9245 40.0187 60.1565 40.936C59.3885 41.832 59.0045 43.0587 59.0045 44.616C59.0045 46.152 59.3885 47.3787 60.1565 48.296C60.9245 49.192 62.0232 49.64 63.4525 49.64Z"/>
<path d="M89.0233 56.04L84.7673 47.912H84.7353V56.04H77.6312V33.384H88.1913C90.0259 33.384 91.5939 33.7147 92.8952 34.376C94.1966 35.016 95.1673 35.9013 95.8073 37.032C96.4686 38.1413 96.7993 39.4 96.7993 40.808C96.7993 42.3227 96.3726 43.6667 95.5192 44.84C94.6872 46.0133 93.4819 46.856 91.9033 47.368L96.8313 56.04H89.0233ZM84.7353 43.176H87.5513C88.2339 43.176 88.7459 43.0267 89.0872 42.728C89.4286 42.408 89.5993 41.9173 89.5993 41.256C89.5993 40.6587 89.4179 40.1893 89.0553 39.848C88.7139 39.5067 88.2126 39.336 87.5513 39.336H84.7353V43.176Z"/>
<path d="M113.597 52.616H106.045L104.925 56.04H97.4688L105.757 33.384H113.949L122.205 56.04H114.717L113.597 52.616ZM111.869 47.272L109.821 40.968L107.773 47.272H111.869Z"/>
<path d="M138.12 56.264C135.411 56.264 133.171 55.6347 131.4 54.376C129.651 53.096 128.702 51.2293 128.552 48.776H136.104C136.211 50.0773 136.787 50.728 137.832 50.728C138.216 50.728 138.536 50.6427 138.792 50.472C139.07 50.28 139.208 49.992 139.208 49.608C139.208 49.0747 138.92 48.648 138.344 48.328C137.768 47.9867 136.872 47.6027 135.656 47.176C134.206 46.664 133 46.1627 132.04 45.672C131.102 45.1813 130.291 44.4667 129.608 43.528C128.926 42.5893 128.595 41.384 128.616 39.912C128.616 38.44 128.99 37.192 129.736 36.168C130.504 35.1227 131.539 34.3333 132.84 33.8C134.163 33.2667 135.646 33 137.288 33C140.062 33 142.259 33.64 143.88 34.92C145.523 36.2 146.387 38.0027 146.472 40.328H138.824C138.803 39.688 138.643 39.2293 138.344 38.952C138.046 38.6747 137.683 38.536 137.256 38.536C136.958 38.536 136.712 38.6427 136.52 38.856C136.328 39.048 136.232 39.3253 136.232 39.688C136.232 40.2 136.51 40.6267 137.064 40.968C137.64 41.288 138.547 41.6827 139.784 42.152C141.214 42.6853 142.387 43.1973 143.304 43.688C144.243 44.1787 145.054 44.8613 145.736 45.736C146.419 46.6107 146.76 47.7093 146.76 49.032C146.76 50.4187 146.419 51.6667 145.736 52.776C145.054 53.864 144.062 54.7173 142.76 55.336C141.459 55.9547 139.912 56.264 138.12 56.264Z"/>
<path d="M167.048 33.384V39.016H161.032V56.04H153.928V39.016H147.976V33.384H167.048Z"/>
<path d="M183.503 52.616H175.951L174.831 56.04H167.375L175.663 33.384H183.855L192.111 56.04H184.623L183.503 52.616ZM181.775 47.272L179.727 40.968L177.679 47.272H181.775Z"/>
<path d="M211.517 33.384V39.016H205.501V56.04H198.397V39.016H192.445V33.384H211.517Z"/>
<path d="M220.548 39.048V41.832H227.588V47.176H220.548V50.376H228.548V56.04H213.444V33.384H228.548V39.048H220.548Z"/>
<path d="M240.089 56.264C237.38 56.264 235.14 55.6347 233.369 54.376C231.62 53.096 230.67 51.2293 230.521 48.776H238.073C238.18 50.0773 238.756 50.728 239.801 50.728C240.185 50.728 240.505 50.6427 240.761 50.472C241.038 50.28 241.177 49.992 241.177 49.608C241.177 49.0747 240.889 48.648 240.313 48.328C239.737 47.9867 238.841 47.6027 237.625 47.176C236.174 46.664 234.969 46.1627 234.009 45.672C233.07 45.1813 232.26 44.4667 231.577 43.528C230.894 42.5893 230.564 41.384 230.585 39.912C230.585 38.44 230.958 37.192 231.705 36.168C232.473 35.1227 233.508 34.3333 234.809 33.8C236.132 33.2667 237.614 33 239.257 33C242.03 33 244.228 33.64 245.849 34.92C247.492 36.2 248.356 38.0027 248.441 40.328H240.793C240.772 39.688 240.612 39.2293 240.313 38.952C240.014 38.6747 239.652 38.536 239.225 38.536C238.926 38.536 238.681 38.6427 238.489 38.856C238.297 39.048 238.201 39.3253 238.201 39.688C238.201 40.2 238.478 40.6267 239.033 40.968C239.609 41.288 240.516 41.6827 241.753 42.152C243.182 42.6853 244.356 43.1973 245.273 43.688C246.212 44.1787 247.022 44.8613 247.705 45.736C248.388 46.6107 248.729 47.7093 248.729 49.032C248.729 50.4187 248.388 51.6667 247.705 52.776C247.022 53.864 246.03 54.7173 244.729 55.336C243.428 55.9547 241.881 56.264 240.089 56.264Z"/>
</mask>
<path d="M51.5213 1.384L46.3372 24.04H37.5052L34.8812 11.176L32.2573 24.04H23.4253L18.2412 1.384H25.8893L27.9373 15.656L31.0093 1.384H38.7533L41.8252 15.656L43.8733 1.384H51.5213Z" fill="#F2A73F"/>
<path d="M61.1728 7.048V9.832H68.2128V15.176H61.1728V18.376H69.1728V24.04H54.0687V1.384H69.1728V7.048H61.1728Z" fill="#F2A73F"/>
<path d="M78.954 18.664H85.802V24.04H71.85V1.384H78.954V18.664Z" fill="#F2A73F"/>
<path d="M87.3975 12.68C87.3975 10.44 87.8455 8.44533 88.7415 6.696C89.6588 4.94667 90.9602 3.592 92.6455 2.632C94.3308 1.65067 96.3148 1.16 98.5975 1.16C100.56 1.16 102.31 1.53333 103.846 2.28C105.403 3.00533 106.662 4.04 107.622 5.384C108.603 6.728 109.254 8.296 109.574 10.088H102.086C101.744 9.34133 101.254 8.76533 100.614 8.36C99.9948 7.93333 99.2802 7.72 98.4695 7.72C97.2748 7.72 96.3255 8.168 95.6215 9.064C94.9388 9.96 94.5975 11.1653 94.5975 12.68C94.5975 14.1947 94.9388 15.4 95.6215 16.296C96.3255 17.192 97.2748 17.64 98.4695 17.64C99.2802 17.64 99.9948 17.4373 100.614 17.032C101.254 16.6053 101.744 16.0187 102.086 15.272H109.574C109.254 17.064 108.603 18.632 107.622 19.976C106.662 21.32 105.403 22.3653 103.846 23.112C102.31 23.8373 100.56 24.2 98.5975 24.2C96.3148 24.2 94.3308 23.72 92.6455 22.76C90.9602 21.7787 89.6588 20.4133 88.7415 18.664C87.8455 16.9147 87.3975 14.92 87.3975 12.68Z" fill="#F2A73F"/>
<path d="M123.171 24.264C121.038 24.264 119.075 23.7627 117.283 22.76C115.513 21.7573 114.105 20.3707 113.059 18.6C112.014 16.8293 111.491 14.8347 111.491 12.616C111.491 10.3973 112.014 8.40267 113.059 6.632C114.105 4.86133 115.513 3.48533 117.283 2.504C119.075 1.50133 121.038 1 123.171 1C125.305 1 127.257 1.50133 129.027 2.504C130.798 3.48533 132.195 4.86133 133.219 6.632C134.265 8.40267 134.787 10.3973 134.787 12.616C134.787 14.8347 134.265 16.8293 133.219 18.6C132.195 20.3707 130.787 21.7573 128.995 22.76C127.225 23.7627 125.283 24.264 123.171 24.264ZM123.171 17.64C124.579 17.64 125.667 17.192 126.435 16.296C127.203 15.3787 127.587 14.152 127.587 12.616C127.587 11.0587 127.203 9.832 126.435 8.936C125.667 8.01867 124.579 7.56 123.171 7.56C121.742 7.56 120.643 8.01867 119.875 8.936C119.107 9.832 118.723 11.0587 118.723 12.616C118.723 14.152 119.107 15.3787 119.875 16.296C120.643 17.192 121.742 17.64 123.171 17.64Z" fill="#F2A73F"/>
<path d="M164.582 1.384V24.04H157.51V12.744L154.022 24.04H147.942L144.454 12.744V24.04H137.35V1.384H146.054L151.046 14.984L155.91 1.384H164.582Z" fill="#F2A73F"/>
<path d="M174.891 7.048V9.832H181.932V15.176H174.891V18.376H182.891V24.04H167.788V1.384H182.891V7.048H174.891Z" fill="#F2A73F"/>
<path d="M208.798 1.384V7.016H202.782V24.04H195.678V7.016H189.726V1.384H208.798Z" fill="#F2A73F"/>
<path d="M221.765 24.264C219.632 24.264 217.669 23.7627 215.877 22.76C214.106 21.7573 212.698 20.3707 211.653 18.6C210.608 16.8293 210.085 14.8347 210.085 12.616C210.085 10.3973 210.608 8.40267 211.653 6.632C212.698 4.86133 214.106 3.48533 215.877 2.504C217.669 1.50133 219.632 1 221.765 1C223.898 1 225.85 1.50133 227.621 2.504C229.392 3.48533 230.789 4.86133 231.813 6.632C232.858 8.40267 233.381 10.3973 233.381 12.616C233.381 14.8347 232.858 16.8293 231.813 18.6C230.789 20.3707 229.381 21.7573 227.589 22.76C225.818 23.7627 223.877 24.264 221.765 24.264ZM221.765 17.64C223.173 17.64 224.261 17.192 225.029 16.296C225.797 15.3787 226.181 14.152 226.181 12.616C226.181 11.0587 225.797 9.832 225.029 8.936C224.261 8.01867 223.173 7.56 221.765 7.56C220.336 7.56 219.237 8.01867 218.469 8.936C217.701 9.832 217.317 11.0587 217.317 12.616C217.317 14.152 217.701 15.3787 218.469 16.296C219.237 17.192 220.336 17.64 221.765 17.64Z" fill="#F2A73F"/>
<path d="M18.128 52.616H10.576L9.456 56.04H2L10.288 33.384H18.48L26.736 56.04H19.248L18.128 52.616ZM16.4 47.272L14.352 40.968L12.304 47.272H16.4Z" fill="#F2A73F"/>
<path d="M42.238 41.128C41.9607 40.68 41.566 40.3387 41.054 40.104C40.542 39.848 39.9233 39.72 39.198 39.72C37.8327 39.72 36.7767 40.168 36.03 41.064C35.2833 41.9387 34.91 43.144 34.91 44.68C34.91 46.4507 35.326 47.7733 36.158 48.648C36.99 49.5227 38.27 49.96 39.998 49.96C41.6407 49.96 42.9633 49.2987 43.966 47.976H38.302V42.952H49.854V50.056C48.8727 51.7413 47.518 53.192 45.79 54.408C44.062 55.6027 41.8753 56.2 39.23 56.2C36.8833 56.2 34.8353 55.72 33.086 54.76C31.358 53.7787 30.0247 52.4133 29.086 50.664C28.1687 48.9147 27.71 46.92 27.71 44.68C27.71 42.44 28.1687 40.4453 29.086 38.696C30.0247 36.9467 31.358 35.592 33.086 34.632C34.814 33.6507 36.8407 33.16 39.166 33.16C42.1313 33.16 44.542 33.8747 46.398 35.304C48.2753 36.7333 49.3847 38.6747 49.726 41.128H42.238Z" fill="#F2A73F"/>
<path d="M63.4525 56.264C61.3192 56.264 59.3565 55.7627 57.5645 54.76C55.7938 53.7573 54.3858 52.3707 53.3405 50.6C52.2952 48.8293 51.7725 46.8347 51.7725 44.616C51.7725 42.3973 52.2952 40.4027 53.3405 38.632C54.3858 36.8613 55.7938 35.4853 57.5645 34.504C59.3565 33.5013 61.3192 33 63.4525 33C65.5858 33 67.5378 33.5013 69.3085 34.504C71.0792 35.4853 72.4765 36.8613 73.5005 38.632C74.5458 40.4027 75.0685 42.3973 75.0685 44.616C75.0685 46.8347 74.5458 48.8293 73.5005 50.6C72.4765 52.3707 71.0685 53.7573 69.2765 54.76C67.5058 55.7627 65.5645 56.264 63.4525 56.264ZM63.4525 49.64C64.8605 49.64 65.9485 49.192 66.7165 48.296C67.4845 47.3787 67.8685 46.152 67.8685 44.616C67.8685 43.0587 67.4845 41.832 66.7165 40.936C65.9485 40.0187 64.8605 39.56 63.4525 39.56C62.0232 39.56 60.9245 40.0187 60.1565 40.936C59.3885 41.832 59.0045 43.0587 59.0045 44.616C59.0045 46.152 59.3885 47.3787 60.1565 48.296C60.9245 49.192 62.0232 49.64 63.4525 49.64Z" fill="#F2A73F"/>
<path d="M89.0233 56.04L84.7673 47.912H84.7353V56.04H77.6312V33.384H88.1913C90.0259 33.384 91.5939 33.7147 92.8952 34.376C94.1966 35.016 95.1673 35.9013 95.8073 37.032C96.4686 38.1413 96.7993 39.4 96.7993 40.808C96.7993 42.3227 96.3726 43.6667 95.5192 44.84C94.6872 46.0133 93.4819 46.856 91.9033 47.368L96.8313 56.04H89.0233ZM84.7353 43.176H87.5513C88.2339 43.176 88.7459 43.0267 89.0872 42.728C89.4286 42.408 89.5993 41.9173 89.5993 41.256C89.5993 40.6587 89.4179 40.1893 89.0553 39.848C88.7139 39.5067 88.2126 39.336 87.5513 39.336H84.7353V43.176Z" fill="#F2A73F"/>
<path d="M113.597 52.616H106.045L104.925 56.04H97.4688L105.757 33.384H113.949L122.205 56.04H114.717L113.597 52.616ZM111.869 47.272L109.821 40.968L107.773 47.272H111.869Z" fill="#F2A73F"/>
<path d="M138.12 56.264C135.411 56.264 133.171 55.6347 131.4 54.376C129.651 53.096 128.702 51.2293 128.552 48.776H136.104C136.211 50.0773 136.787 50.728 137.832 50.728C138.216 50.728 138.536 50.6427 138.792 50.472C139.07 50.28 139.208 49.992 139.208 49.608C139.208 49.0747 138.92 48.648 138.344 48.328C137.768 47.9867 136.872 47.6027 135.656 47.176C134.206 46.664 133 46.1627 132.04 45.672C131.102 45.1813 130.291 44.4667 129.608 43.528C128.926 42.5893 128.595 41.384 128.616 39.912C128.616 38.44 128.99 37.192 129.736 36.168C130.504 35.1227 131.539 34.3333 132.84 33.8C134.163 33.2667 135.646 33 137.288 33C140.062 33 142.259 33.64 143.88 34.92C145.523 36.2 146.387 38.0027 146.472 40.328H138.824C138.803 39.688 138.643 39.2293 138.344 38.952C138.046 38.6747 137.683 38.536 137.256 38.536C136.958 38.536 136.712 38.6427 136.52 38.856C136.328 39.048 136.232 39.3253 136.232 39.688C136.232 40.2 136.51 40.6267 137.064 40.968C137.64 41.288 138.547 41.6827 139.784 42.152C141.214 42.6853 142.387 43.1973 143.304 43.688C144.243 44.1787 145.054 44.8613 145.736 45.736C146.419 46.6107 146.76 47.7093 146.76 49.032C146.76 50.4187 146.419 51.6667 145.736 52.776C145.054 53.864 144.062 54.7173 142.76 55.336C141.459 55.9547 139.912 56.264 138.12 56.264Z" fill="#F2A73F"/>
<path d="M167.048 33.384V39.016H161.032V56.04H153.928V39.016H147.976V33.384H167.048Z" fill="#F2A73F"/>
<path d="M183.503 52.616H175.951L174.831 56.04H167.375L175.663 33.384H183.855L192.111 56.04H184.623L183.503 52.616ZM181.775 47.272L179.727 40.968L177.679 47.272H181.775Z" fill="#F2A73F"/>
<path d="M211.517 33.384V39.016H205.501V56.04H198.397V39.016H192.445V33.384H211.517Z" fill="#F2A73F"/>
<path d="M220.548 39.048V41.832H227.588V47.176H220.548V50.376H228.548V56.04H213.444V33.384H228.548V39.048H220.548Z" fill="#F2A73F"/>
<path d="M240.089 56.264C237.38 56.264 235.14 55.6347 233.369 54.376C231.62 53.096 230.67 51.2293 230.521 48.776H238.073C238.18 50.0773 238.756 50.728 239.801 50.728C240.185 50.728 240.505 50.6427 240.761 50.472C241.038 50.28 241.177 49.992 241.177 49.608C241.177 49.0747 240.889 48.648 240.313 48.328C239.737 47.9867 238.841 47.6027 237.625 47.176C236.174 46.664 234.969 46.1627 234.009 45.672C233.07 45.1813 232.26 44.4667 231.577 43.528C230.894 42.5893 230.564 41.384 230.585 39.912C230.585 38.44 230.958 37.192 231.705 36.168C232.473 35.1227 233.508 34.3333 234.809 33.8C236.132 33.2667 237.614 33 239.257 33C242.03 33 244.228 33.64 245.849 34.92C247.492 36.2 248.356 38.0027 248.441 40.328H240.793C240.772 39.688 240.612 39.2293 240.313 38.952C240.014 38.6747 239.652 38.536 239.225 38.536C238.926 38.536 238.681 38.6427 238.489 38.856C238.297 39.048 238.201 39.3253 238.201 39.688C238.201 40.2 238.478 40.6267 239.033 40.968C239.609 41.288 240.516 41.6827 241.753 42.152C243.182 42.6853 244.356 43.1973 245.273 43.688C246.212 44.1787 247.022 44.8613 247.705 45.736C248.388 46.6107 248.729 47.7093 248.729 49.032C248.729 50.4187 248.388 51.6667 247.705 52.776C247.022 53.864 246.03 54.7173 244.729 55.336C243.428 55.9547 241.881 56.264 240.089 56.264Z" fill="#F2A73F"/>
<path d="M51.5213 1.384L46.3372 24.04H37.5052L34.8812 11.176L32.2573 24.04H23.4253L18.2412 1.384H25.8893L27.9373 15.656L31.0093 1.384H38.7533L41.8252 15.656L43.8733 1.384H51.5213Z" stroke="#2E2E2E" stroke-width="2" mask="url(#path-3-outside-3_7_439)"/>
<path d="M61.1728 7.048V9.832H68.2128V15.176H61.1728V18.376H69.1728V24.04H54.0687V1.384H69.1728V7.048H61.1728Z" stroke="#2E2E2E" stroke-width="2" mask="url(#path-3-outside-3_7_439)"/>
<path d="M78.954 18.664H85.802V24.04H71.85V1.384H78.954V18.664Z" stroke="#2E2E2E" stroke-width="2" mask="url(#path-3-outside-3_7_439)"/>
<path d="M87.3975 12.68C87.3975 10.44 87.8455 8.44533 88.7415 6.696C89.6588 4.94667 90.9602 3.592 92.6455 2.632C94.3308 1.65067 96.3148 1.16 98.5975 1.16C100.56 1.16 102.31 1.53333 103.846 2.28C105.403 3.00533 106.662 4.04 107.622 5.384C108.603 6.728 109.254 8.296 109.574 10.088H102.086C101.744 9.34133 101.254 8.76533 100.614 8.36C99.9948 7.93333 99.2802 7.72 98.4695 7.72C97.2748 7.72 96.3255 8.168 95.6215 9.064C94.9388 9.96 94.5975 11.1653 94.5975 12.68C94.5975 14.1947 94.9388 15.4 95.6215 16.296C96.3255 17.192 97.2748 17.64 98.4695 17.64C99.2802 17.64 99.9948 17.4373 100.614 17.032C101.254 16.6053 101.744 16.0187 102.086 15.272H109.574C109.254 17.064 108.603 18.632 107.622 19.976C106.662 21.32 105.403 22.3653 103.846 23.112C102.31 23.8373 100.56 24.2 98.5975 24.2C96.3148 24.2 94.3308 23.72 92.6455 22.76C90.9602 21.7787 89.6588 20.4133 88.7415 18.664C87.8455 16.9147 87.3975 14.92 87.3975 12.68Z" stroke="#2E2E2E" stroke-width="2" mask="url(#path-3-outside-3_7_439)"/>
<path d="M123.171 24.264C121.038 24.264 119.075 23.7627 117.283 22.76C115.513 21.7573 114.105 20.3707 113.059 18.6C112.014 16.8293 111.491 14.8347 111.491 12.616C111.491 10.3973 112.014 8.40267 113.059 6.632C114.105 4.86133 115.513 3.48533 117.283 2.504C119.075 1.50133 121.038 1 123.171 1C125.305 1 127.257 1.50133 129.027 2.504C130.798 3.48533 132.195 4.86133 133.219 6.632C134.265 8.40267 134.787 10.3973 134.787 12.616C134.787 14.8347 134.265 16.8293 133.219 18.6C132.195 20.3707 130.787 21.7573 128.995 22.76C127.225 23.7627 125.283 24.264 123.171 24.264ZM123.171 17.64C124.579 17.64 125.667 17.192 126.435 16.296C127.203 15.3787 127.587 14.152 127.587 12.616C127.587 11.0587 127.203 9.832 126.435 8.936C125.667 8.01867 124.579 7.56 123.171 7.56C121.742 7.56 120.643 8.01867 119.875 8.936C119.107 9.832 118.723 11.0587 118.723 12.616C118.723 14.152 119.107 15.3787 119.875 16.296C120.643 17.192 121.742 17.64 123.171 17.64Z" stroke="#2E2E2E" stroke-width="2" mask="url(#path-3-outside-3_7_439)"/>
<path d="M164.582 1.384V24.04H157.51V12.744L154.022 24.04H147.942L144.454 12.744V24.04H137.35V1.384H146.054L151.046 14.984L155.91 1.384H164.582Z" stroke="#2E2E2E" stroke-width="2" mask="url(#path-3-outside-3_7_439)"/>
<path d="M174.891 7.048V9.832H181.932V15.176H174.891V18.376H182.891V24.04H167.788V1.384H182.891V7.048H174.891Z" stroke="#2E2E2E" stroke-width="2" mask="url(#path-3-outside-3_7_439)"/>
<path d="M208.798 1.384V7.016H202.782V24.04H195.678V7.016H189.726V1.384H208.798Z" stroke="#2E2E2E" stroke-width="2" mask="url(#path-3-outside-3_7_439)"/>
<path d="M221.765 24.264C219.632 24.264 217.669 23.7627 215.877 22.76C214.106 21.7573 212.698 20.3707 211.653 18.6C210.608 16.8293 210.085 14.8347 210.085 12.616C210.085 10.3973 210.608 8.40267 211.653 6.632C212.698 4.86133 214.106 3.48533 215.877 2.504C217.669 1.50133 219.632 1 221.765 1C223.898 1 225.85 1.50133 227.621 2.504C229.392 3.48533 230.789 4.86133 231.813 6.632C232.858 8.40267 233.381 10.3973 233.381 12.616C233.381 14.8347 232.858 16.8293 231.813 18.6C230.789 20.3707 229.381 21.7573 227.589 22.76C225.818 23.7627 223.877 24.264 221.765 24.264ZM221.765 17.64C223.173 17.64 224.261 17.192 225.029 16.296C225.797 15.3787 226.181 14.152 226.181 12.616C226.181 11.0587 225.797 9.832 225.029 8.936C224.261 8.01867 223.173 7.56 221.765 7.56C220.336 7.56 219.237 8.01867 218.469 8.936C217.701 9.832 217.317 11.0587 217.317 12.616C217.317 14.152 217.701 15.3787 218.469 16.296C219.237 17.192 220.336 17.64 221.765 17.64Z" stroke="#2E2E2E" stroke-width="2" mask="url(#path-3-outside-3_7_439)"/>
<path d="M18.128 52.616H10.576L9.456 56.04H2L10.288 33.384H18.48L26.736 56.04H19.248L18.128 52.616ZM16.4 47.272L14.352 40.968L12.304 47.272H16.4Z" stroke="#2E2E2E" stroke-width="2" mask="url(#path-3-outside-3_7_439)"/>
<path d="M42.238 41.128C41.9607 40.68 41.566 40.3387 41.054 40.104C40.542 39.848 39.9233 39.72 39.198 39.72C37.8327 39.72 36.7767 40.168 36.03 41.064C35.2833 41.9387 34.91 43.144 34.91 44.68C34.91 46.4507 35.326 47.7733 36.158 48.648C36.99 49.5227 38.27 49.96 39.998 49.96C41.6407 49.96 42.9633 49.2987 43.966 47.976H38.302V42.952H49.854V50.056C48.8727 51.7413 47.518 53.192 45.79 54.408C44.062 55.6027 41.8753 56.2 39.23 56.2C36.8833 56.2 34.8353 55.72 33.086 54.76C31.358 53.7787 30.0247 52.4133 29.086 50.664C28.1687 48.9147 27.71 46.92 27.71 44.68C27.71 42.44 28.1687 40.4453 29.086 38.696C30.0247 36.9467 31.358 35.592 33.086 34.632C34.814 33.6507 36.8407 33.16 39.166 33.16C42.1313 33.16 44.542 33.8747 46.398 35.304C48.2753 36.7333 49.3847 38.6747 49.726 41.128H42.238Z" stroke="#2E2E2E" stroke-width="2" mask="url(#path-3-outside-3_7_439)"/>
<path d="M63.4525 56.264C61.3192 56.264 59.3565 55.7627 57.5645 54.76C55.7938 53.7573 54.3858 52.3707 53.3405 50.6C52.2952 48.8293 51.7725 46.8347 51.7725 44.616C51.7725 42.3973 52.2952 40.4027 53.3405 38.632C54.3858 36.8613 55.7938 35.4853 57.5645 34.504C59.3565 33.5013 61.3192 33 63.4525 33C65.5858 33 67.5378 33.5013 69.3085 34.504C71.0792 35.4853 72.4765 36.8613 73.5005 38.632C74.5458 40.4027 75.0685 42.3973 75.0685 44.616C75.0685 46.8347 74.5458 48.8293 73.5005 50.6C72.4765 52.3707 71.0685 53.7573 69.2765 54.76C67.5058 55.7627 65.5645 56.264 63.4525 56.264ZM63.4525 49.64C64.8605 49.64 65.9485 49.192 66.7165 48.296C67.4845 47.3787 67.8685 46.152 67.8685 44.616C67.8685 43.0587 67.4845 41.832 66.7165 40.936C65.9485 40.0187 64.8605 39.56 63.4525 39.56C62.0232 39.56 60.9245 40.0187 60.1565 40.936C59.3885 41.832 59.0045 43.0587 59.0045 44.616C59.0045 46.152 59.3885 47.3787 60.1565 48.296C60.9245 49.192 62.0232 49.64 63.4525 49.64Z" stroke="#2E2E2E" stroke-width="2" mask="url(#path-3-outside-3_7_439)"/>
<path d="M89.0233 56.04L84.7673 47.912H84.7353V56.04H77.6312V33.384H88.1913C90.0259 33.384 91.5939 33.7147 92.8952 34.376C94.1966 35.016 95.1673 35.9013 95.8073 37.032C96.4686 38.1413 96.7993 39.4 96.7993 40.808C96.7993 42.3227 96.3726 43.6667 95.5192 44.84C94.6872 46.0133 93.4819 46.856 91.9033 47.368L96.8313 56.04H89.0233ZM84.7353 43.176H87.5513C88.2339 43.176 88.7459 43.0267 89.0872 42.728C89.4286 42.408 89.5993 41.9173 89.5993 41.256C89.5993 40.6587 89.4179 40.1893 89.0553 39.848C88.7139 39.5067 88.2126 39.336 87.5513 39.336H84.7353V43.176Z" stroke="#2E2E2E" stroke-width="2" mask="url(#path-3-outside-3_7_439)"/>
<path d="M113.597 52.616H106.045L104.925 56.04H97.4688L105.757 33.384H113.949L122.205 56.04H114.717L113.597 52.616ZM111.869 47.272L109.821 40.968L107.773 47.272H111.869Z" stroke="#2E2E2E" stroke-width="2" mask="url(#path-3-outside-3_7_439)"/>
<path d="M138.12 56.264C135.411 56.264 133.171 55.6347 131.4 54.376C129.651 53.096 128.702 51.2293 128.552 48.776H136.104C136.211 50.0773 136.787 50.728 137.832 50.728C138.216 50.728 138.536 50.6427 138.792 50.472C139.07 50.28 139.208 49.992 139.208 49.608C139.208 49.0747 138.92 48.648 138.344 48.328C137.768 47.9867 136.872 47.6027 135.656 47.176C134.206 46.664 133 46.1627 132.04 45.672C131.102 45.1813 130.291 44.4667 129.608 43.528C128.926 42.5893 128.595 41.384 128.616 39.912C128.616 38.44 128.99 37.192 129.736 36.168C130.504 35.1227 131.539 34.3333 132.84 33.8C134.163 33.2667 135.646 33 137.288 33C140.062 33 142.259 33.64 143.88 34.92C145.523 36.2 146.387 38.0027 146.472 40.328H138.824C138.803 39.688 138.643 39.2293 138.344 38.952C138.046 38.6747 137.683 38.536 137.256 38.536C136.958 38.536 136.712 38.6427 136.52 38.856C136.328 39.048 136.232 39.3253 136.232 39.688C136.232 40.2 136.51 40.6267 137.064 40.968C137.64 41.288 138.547 41.6827 139.784 42.152C141.214 42.6853 142.387 43.1973 143.304 43.688C144.243 44.1787 145.054 44.8613 145.736 45.736C146.419 46.6107 146.76 47.7093 146.76 49.032C146.76 50.4187 146.419 51.6667 145.736 52.776C145.054 53.864 144.062 54.7173 142.76 55.336C141.459 55.9547 139.912 56.264 138.12 56.264Z" stroke="#2E2E2E" stroke-width="2" mask="url(#path-3-outside-3_7_439)"/>
<path d="M167.048 33.384V39.016H161.032V56.04H153.928V39.016H147.976V33.384H167.048Z" stroke="#2E2E2E" stroke-width="2" mask="url(#path-3-outside-3_7_439)"/>
<path d="M183.503 52.616H175.951L174.831 56.04H167.375L175.663 33.384H183.855L192.111 56.04H184.623L183.503 52.616ZM181.775 47.272L179.727 40.968L177.679 47.272H181.775Z" stroke="#2E2E2E" stroke-width="2" mask="url(#path-3-outside-3_7_439)"/>
<path d="M211.517 33.384V39.016H205.501V56.04H198.397V39.016H192.445V33.384H211.517Z" stroke="#2E2E2E" stroke-width="2" mask="url(#path-3-outside-3_7_439)"/>
<path d="M220.548 39.048V41.832H227.588V47.176H220.548V50.376H228.548V56.04H213.444V33.384H228.548V39.048H220.548Z" stroke="#2E2E2E" stroke-width="2" mask="url(#path-3-outside-3_7_439)"/>
<path d="M240.089 56.264C237.38 56.264 235.14 55.6347 233.369 54.376C231.62 53.096 230.67 51.2293 230.521 48.776H238.073C238.18 50.0773 238.756 50.728 239.801 50.728C240.185 50.728 240.505 50.6427 240.761 50.472C241.038 50.28 241.177 49.992 241.177 49.608C241.177 49.0747 240.889 48.648 240.313 48.328C239.737 47.9867 238.841 47.6027 237.625 47.176C236.174 46.664 234.969 46.1627 234.009 45.672C233.07 45.1813 232.26 44.4667 231.577 43.528C230.894 42.5893 230.564 41.384 230.585 39.912C230.585 38.44 230.958 37.192 231.705 36.168C232.473 35.1227 233.508 34.3333 234.809 33.8C236.132 33.2667 237.614 33 239.257 33C242.03 33 244.228 33.64 245.849 34.92C247.492 36.2 248.356 38.0027 248.441 40.328H240.793C240.772 39.688 240.612 39.2293 240.313 38.952C240.014 38.6747 239.652 38.536 239.225 38.536C238.926 38.536 238.681 38.6427 238.489 38.856C238.297 39.048 238.201 39.3253 238.201 39.688C238.201 40.2 238.478 40.6267 239.033 40.968C239.609 41.288 240.516 41.6827 241.753 42.152C243.182 42.6853 244.356 43.1973 245.273 43.688C246.212 44.1787 247.022 44.8613 247.705 45.736C248.388 46.6107 248.729 47.7093 248.729 49.032C248.729 50.4187 248.388 51.6667 247.705 52.776C247.022 53.864 246.03 54.7173 244.729 55.336C243.428 55.9547 241.881 56.264 240.089 56.264Z" stroke="#2E2E2E" stroke-width="2" mask="url(#path-3-outside-3_7_439)"/>
</svg>
